<svg width="1144" height="262" viewBox="0 0 1144 262" fill="none" xmlns="http://www.w3.org/2000/svg">
<path d="M416.884 100.215V119.306H361.699V100.215H416.884ZM374.227 78.2602H399.642V163.692C399.642 166.039 400 167.868 400.716 169.181C401.432 170.453 402.426 171.348 403.699 171.865C405.011 172.382 406.523 172.641 408.233 172.641C409.426 172.641 410.619 172.541 411.812 172.343C413.006 172.104 413.92 171.925 414.557 171.806L418.554 190.718C417.281 191.115 415.491 191.573 413.185 192.09C410.878 192.647 408.074 192.985 404.773 193.104C398.648 193.343 393.278 192.527 388.665 190.658C384.091 188.789 380.531 185.885 377.986 181.948C375.44 178.01 374.188 173.039 374.227 167.033V78.2602ZM467.496 193.641C458.07 193.641 449.956 191.732 443.155 187.914C436.394 184.056 431.183 178.607 427.524 171.567C423.865 164.487 422.036 156.115 422.036 146.451C422.036 137.024 423.865 128.752 427.524 121.632C431.183 114.513 436.334 108.965 442.976 104.987C449.658 101.01 457.493 99.0215 466.482 99.0215C472.527 99.0215 478.155 99.996 483.365 101.945C488.615 103.854 493.189 106.737 497.087 110.595C501.024 114.453 504.087 119.306 506.274 125.152C508.462 130.959 509.556 137.76 509.556 145.556V152.536H432.178V136.786H485.632C485.632 133.127 484.837 129.885 483.246 127.061C481.655 124.237 479.448 122.03 476.624 120.439C473.84 118.808 470.598 117.993 466.899 117.993C463.041 117.993 459.621 118.888 456.638 120.678C453.695 122.428 451.388 124.794 449.717 127.777C448.047 130.72 447.192 134.002 447.152 137.621V152.595C447.152 157.129 447.987 161.047 449.658 164.348C451.368 167.649 453.774 170.195 456.877 171.985C459.979 173.774 463.658 174.669 467.914 174.669C470.737 174.669 473.323 174.272 475.669 173.476C478.016 172.681 480.024 171.487 481.695 169.897C483.365 168.306 484.638 166.357 485.513 164.05L509.019 165.601C507.825 171.249 505.379 176.181 501.681 180.397C498.021 184.573 493.289 187.834 487.482 190.181C481.715 192.487 475.053 193.641 467.496 193.641ZM539.019 100.215L555.843 132.252L573.084 100.215H599.155L572.607 146.033L599.871 191.851H573.919L555.843 160.172L538.064 191.851H511.814L539.019 146.033L512.769 100.215H539.019ZM633.167 193.581C627.321 193.581 622.111 192.567 617.537 190.539C612.963 188.47 609.344 185.428 606.679 181.411C604.054 177.354 602.741 172.303 602.741 166.257C602.741 161.166 603.676 156.891 605.545 153.431C607.415 149.97 609.96 147.186 613.182 145.078C616.403 142.97 620.062 141.379 624.159 140.306C628.295 139.232 632.63 138.476 637.165 138.039C642.494 137.482 646.79 136.965 650.051 136.487C653.312 135.97 655.679 135.215 657.15 134.22C658.622 133.226 659.358 131.754 659.358 129.806V129.448C659.358 125.669 658.165 122.746 655.778 120.678C653.432 118.61 650.091 117.576 645.755 117.576C641.182 117.576 637.542 118.59 634.838 120.618C632.133 122.607 630.344 125.112 629.469 128.135L605.963 126.226C607.156 120.658 609.503 115.845 613.003 111.789C616.503 107.692 621.017 104.55 626.545 102.362C632.113 100.135 638.557 99.0215 645.875 99.0215C650.966 99.0215 655.838 99.6181 660.491 100.811C665.184 102.004 669.341 103.854 672.96 106.36C676.619 108.865 679.503 112.087 681.611 116.024C683.719 119.922 684.773 124.595 684.773 130.044V191.851H660.67V179.144H659.954C658.483 182.007 656.514 184.533 654.048 186.72C651.582 188.868 648.619 190.558 645.159 191.791C641.699 192.985 637.702 193.581 633.167 193.581ZM640.446 176.041C644.184 176.041 647.486 175.306 650.349 173.834C653.213 172.323 655.46 170.294 657.091 167.749C658.721 165.203 659.537 162.32 659.537 159.098V149.374C658.741 149.891 657.648 150.368 656.255 150.806C654.903 151.203 653.372 151.581 651.662 151.939C649.952 152.257 648.241 152.556 646.531 152.834C644.821 153.073 643.27 153.291 641.878 153.49C638.895 153.928 636.29 154.624 634.062 155.578C631.835 156.533 630.105 157.826 628.872 159.456C627.639 161.047 627.023 163.036 627.023 165.422C627.023 168.882 628.275 171.527 630.781 173.357C633.327 175.147 636.548 176.041 640.446 176.041ZM774.014 126.345L750.747 127.777C750.349 125.789 749.494 123.999 748.182 122.408C746.869 120.777 745.139 119.485 742.991 118.53C740.883 117.536 738.358 117.039 735.415 117.039C731.477 117.039 728.156 117.874 725.452 119.544C722.747 121.175 721.395 123.362 721.395 126.107C721.395 128.294 722.27 130.144 724.02 131.655C725.77 133.166 728.773 134.379 733.028 135.294L749.614 138.635C758.523 140.465 765.165 143.408 769.54 147.465C773.915 151.522 776.102 156.851 776.102 163.453C776.102 169.459 774.332 174.729 770.793 179.263C767.293 183.797 762.48 187.337 756.355 189.882C750.27 192.388 743.25 193.641 735.295 193.641C723.165 193.641 713.5 191.115 706.301 186.064C699.142 180.973 694.946 174.053 693.713 165.303L718.71 163.99C719.466 167.689 721.295 170.513 724.199 172.462C727.102 174.371 730.821 175.326 735.355 175.326C739.81 175.326 743.389 174.47 746.094 172.76C748.838 171.01 750.23 168.763 750.27 166.019C750.23 163.712 749.256 161.823 747.347 160.351C745.437 158.84 742.494 157.686 738.517 156.891L722.648 153.729C713.699 151.939 707.037 148.837 702.662 144.422C698.327 140.007 696.159 134.379 696.159 127.539C696.159 121.652 697.75 116.581 700.932 112.326C704.153 108.07 708.668 104.789 714.474 102.482C720.321 100.175 727.162 99.0215 734.997 99.0215C746.571 99.0215 755.679 101.468 762.321 106.36C769.003 111.252 772.901 117.914 774.014 126.345ZM843.679 193.581C837.833 193.581 832.622 192.567 828.049 190.539C823.475 188.47 819.855 185.428 817.191 181.411C814.566 177.354 813.253 172.303 813.253 166.257C813.253 161.166 814.188 156.891 816.057 153.431C817.926 149.97 820.472 147.186 823.693 145.078C826.915 142.97 830.574 141.379 834.671 140.306C838.807 139.232 843.142 138.476 847.676 138.039C853.006 137.482 857.301 136.965 860.563 136.487C863.824 135.97 866.191 135.215 867.662 134.22C869.134 133.226 869.87 131.754 869.87 129.806V129.448C869.87 125.669 868.676 122.746 866.29 120.678C863.943 118.61 860.603 117.576 856.267 117.576C851.693 117.576 848.054 118.59 845.35 120.618C842.645 122.607 840.855 125.112 839.98 128.135L816.475 126.226C817.668 120.658 820.015 115.845 823.515 111.789C827.015 107.692 831.529 104.55 837.057 102.362C842.625 100.135 849.068 99.0215 856.387 99.0215C861.478 99.0215 866.35 99.6181 871.003 100.811C875.696 102.004 879.853 103.854 883.472 106.36C887.131 108.865 890.015 112.087 892.122 116.024C894.23 119.922 895.284 124.595 895.284 130.044V191.851H871.182V179.144H870.466C868.995 182.007 867.026 184.533 864.56 186.72C862.094 188.868 859.131 190.558 855.671 191.791C852.211 192.985 848.213 193.581 843.679 193.581ZM850.958 176.041C854.696 176.041 857.997 175.306 860.861 173.834C863.725 172.323 865.972 170.294 867.603 167.749C869.233 165.203 870.049 162.32 870.049 159.098V149.374C869.253 149.891 868.159 150.368 866.767 150.806C865.415 151.203 863.884 151.581 862.174 151.939C860.463 152.257 858.753 152.556 857.043 152.834C855.333 153.073 853.782 153.291 852.39 153.49C849.407 153.928 846.801 154.624 844.574 155.578C842.347 156.533 840.617 157.826 839.384 159.456C838.151 161.047 837.534 163.036 837.534 165.422C837.534 168.882 838.787 171.527 841.293 173.357C843.838 175.147 847.06 176.041 850.958 176.041ZM949.685 193.641C940.299 193.641 932.225 191.652 925.464 187.675C918.742 183.658 913.572 178.09 909.952 170.97C906.373 163.851 904.583 155.658 904.583 146.391C904.583 137.004 906.393 128.772 910.012 121.692C913.671 114.573 918.861 109.024 925.583 105.047C932.304 101.03 940.299 99.0215 949.566 99.0215C957.56 99.0215 964.56 100.473 970.566 103.377C976.572 106.28 981.324 110.357 984.824 115.607C988.324 120.857 990.253 127.022 990.611 134.101H966.628C965.952 129.527 964.162 125.848 961.259 123.064C958.395 120.24 954.637 118.828 949.983 118.828C946.046 118.828 942.606 119.902 939.662 122.05C936.759 124.158 934.492 127.24 932.861 131.297C931.231 135.354 930.415 140.266 930.415 146.033C930.415 151.879 931.211 156.851 932.802 160.948C934.432 165.044 936.719 168.166 939.662 170.314C942.606 172.462 946.046 173.536 949.983 173.536C952.887 173.536 955.492 172.939 957.799 171.746C960.145 170.553 962.074 168.823 963.586 166.556C965.137 164.249 966.151 161.485 966.628 158.263H990.611C990.214 165.263 988.304 171.428 984.884 176.757C981.503 182.047 976.83 186.183 970.864 189.166C964.898 192.149 957.839 193.641 949.685 193.641ZM1000.16 191.851V100.215H1024.38V116.382H1025.46C1027.37 111.013 1030.55 106.777 1035 103.675C1039.46 100.573 1044.79 99.0215 1050.99 99.0215C1057.28 99.0215 1062.63 100.593 1067.04 103.735C1071.46 106.837 1074.4 111.053 1075.87 116.382H1076.83C1078.69 111.132 1082.08 106.936 1086.97 103.794C1091.9 100.612 1097.73 99.0215 1104.45 99.0215C1113 99.0215 1119.94 101.746 1125.27 107.195C1130.64 112.604 1133.32 120.28 1133.32 130.223V191.851H1107.97V135.235C1107.97 130.144 1106.61 126.326 1103.91 123.78C1101.21 121.235 1097.83 119.962 1093.77 119.962C1089.15 119.962 1085.56 121.433 1082.97 124.377C1080.38 127.28 1079.09 131.118 1079.09 135.891V191.851H1054.45V134.698C1054.45 130.203 1053.16 126.624 1050.58 123.959C1048.03 121.294 1044.67 119.962 1040.49 119.962C1037.67 119.962 1035.12 120.678 1032.86 122.11C1030.63 123.502 1028.86 125.47 1027.55 128.016C1026.23 130.522 1025.58 133.465 1025.58 136.845V191.851H1000.16Z" fill="white"/>
<rect x="86.655" y="131" width="156.262" height="156.262" rx="30.5" transform="rotate(-45 86.655 131)" stroke="white" stroke-width="29"/>
<circle cx="109.5" cy="130.351" r="95" stroke="white" stroke-width="29"/>
</svg>
