<svg width="300" height="100" viewBox="0 0 300 100" fill="none" xmlns="http://www.w3.org/2000/svg">
  <path d="M50 20C33.4315 20 20 33.4315 20 50C20 66.5685 33.4315 80 50 80C66.5685 80 80 66.5685 80 50C80 33.4315 66.5685 20 50 20ZM50 70C39.0589 70 30 60.9411 30 50C30 39.0589 39.0589 30 50 30C60.9411 30 70 39.0589 70 50C70 60.9411 60.9411 70 50 70Z" fill="#9E4E00"/>
  <path d="M70 30C53.4315 30 40 43.4315 40 60C40 76.5685 53.4315 90 70 90C86.5685 90 100 76.5685 100 60C100 43.4315 86.5685 30 70 30ZM70 80C59.0589 80 50 70.9411 50 60C50 49.0589 59.0589 40 70 40C80.9411 40 90 49.0589 90 60C90 70.9411 80.9411 80 70 80Z" fill="#9E4E00"/>
  <path d="M130 50L140 30H150L160 50L170 30H180L165 60H155L145 40L135 60H125L130 50Z" fill="#9E4E00"/>
  <path d="M180 30H200C205 30 210 35 210 40C210 45 205 50 200 50H190V60H180V30ZM190 40H200V50H190V40Z" fill="#9E4E00"/>
  <path d="M220 30H240C245 30 250 35 250 40C250 45 245 50 240 50L250 60H240L230 50V60H220V30ZM230 40H240V50H230V40Z" fill="#9E4E00"/>
  <path d="M260 30H280C285 30 290 35 290 40C290 45 285 50 280 50H270V60H260V30ZM270 40H280V50H270V40Z" fill="#9E4E00"/>
  <path d="M300 30H310C315 30 320 35 320 40V50C320 55 315 60 310 60H300V30ZM310 50V40H320V50H310Z" fill="#9E4E00"/>
  <path d="M330 30H350C355 30 360 35 360 40C360 42.5 358.5 45 355 46.5C358.5 48 360 50.5 360 53C360 57 355 60 350 60H330V30ZM340 40H350V50H340V40Z" fill="#9E4E00"/>
  <path d="M370 30H400V40H390V60H380V40H370V30Z" fill="#9E4E00"/>
</svg>

