<svg width="1316" height="262" viewBox="0 0 1316 262" fill="none" xmlns="http://www.w3.org/2000/svg">
<mask id="path-1-outside-1_8_731" maskUnits="userSpaceOnUse" x="361" y="67" width="945" height="148" fill="black">
<rect fill="white" x="361" y="67" width="945" height="148"/>
<path d="M415.028 213.272C402.732 213.272 393.757 209.88 388.104 203.096C382.451 196.312 379.624 186.913 379.624 174.9V123.172H362.452V100.276H379.624V68.9H405.488V100.276H439.408V123.172H405.488V170.024C405.488 173.699 405.912 177.02 406.76 179.988C407.608 182.956 409.163 185.288 411.424 186.984C413.685 188.68 416.795 189.599 420.752 189.74C424.144 189.74 427.041 189.175 429.444 188.044C431.847 186.913 433.825 185.641 435.38 184.228L444.072 203.944C441.387 206.205 438.348 208.043 434.956 209.456C431.705 210.869 428.384 211.859 424.992 212.424C421.6 212.989 418.279 213.272 415.028 213.272ZM499.634 213.484C488.045 213.484 478.152 211.081 469.954 206.276C461.898 201.471 455.75 194.828 451.51 186.348C447.412 177.727 445.362 167.763 445.362 156.456C445.362 145.149 447.482 135.185 451.722 126.564C456.104 117.801 462.322 110.947 470.378 106C478.576 101.053 488.398 98.58 499.846 98.58C508.326 98.58 515.746 100.135 522.106 103.244C528.466 106.212 533.766 110.311 538.006 115.54C542.388 120.769 545.638 126.705 547.758 133.348C549.878 139.991 550.868 146.987 550.726 154.336C550.585 156.032 550.444 157.728 550.302 159.424C550.161 160.979 549.949 162.675 549.666 164.512H471.226C471.65 169.459 472.922 173.981 475.042 178.08C477.304 182.179 480.413 185.429 484.37 187.832C488.469 190.235 493.557 191.436 499.634 191.436C503.168 191.436 506.56 191.012 509.81 190.164C513.061 189.175 515.888 187.761 518.29 185.924C520.834 184.087 522.53 181.755 523.378 178.928H549.242C547.405 186.984 544.013 193.556 539.066 198.644C534.12 203.732 528.184 207.477 521.258 209.88C514.474 212.283 507.266 213.484 499.634 213.484ZM471.65 145.22H525.498C525.498 140.556 524.438 136.316 522.318 132.5C520.198 128.684 517.16 125.716 513.202 123.596C509.386 121.335 504.722 120.204 499.21 120.204C493.274 120.204 488.328 121.405 484.37 123.808C480.413 126.211 477.374 129.32 475.254 133.136C473.134 136.952 471.933 140.98 471.65 145.22ZM549.974 212L589.406 154.972L552.094 100.276H582.198L606.366 137.8L629.898 100.276H659.366L622.054 155.608L662.122 212H631.806L605.306 173.416L578.806 212H549.974ZM703.446 213.484C698.216 213.484 693.27 212.777 688.606 211.364C683.942 209.951 679.772 207.901 676.098 205.216C672.423 202.389 669.455 198.927 667.194 194.828C665.074 190.588 664.014 185.641 664.014 179.988C664.014 172.78 665.427 166.915 668.254 162.392C671.08 157.728 674.896 154.195 679.702 151.792C684.648 149.389 690.231 147.764 696.45 146.916C702.668 145.927 709.17 145.432 715.954 145.432H737.79C737.79 140.485 737.012 136.245 735.458 132.712C733.903 129.037 731.43 126.14 728.038 124.02C724.787 121.9 720.547 120.84 715.318 120.84C711.926 120.84 708.746 121.264 705.778 122.112C702.951 122.819 700.478 124.02 698.358 125.716C696.379 127.271 694.966 129.32 694.118 131.864H667.618C668.607 126.069 670.586 121.123 673.554 117.024C676.663 112.784 680.408 109.321 684.79 106.636C689.312 103.951 694.259 101.972 699.63 100.7C705 99.2867 710.442 98.58 715.954 98.58C732.207 98.58 744.008 103.244 751.358 112.572C758.848 121.9 762.594 134.973 762.594 151.792V212H739.698L739.062 197.584C735.811 202.389 731.924 205.923 727.402 208.184C722.879 210.445 718.498 211.859 714.258 212.424C710.018 213.131 706.414 213.484 703.446 213.484ZM708.534 192.496C714.187 192.496 719.204 191.436 723.586 189.316C727.967 187.196 731.43 184.228 733.974 180.412C736.659 176.596 738.002 172.215 738.002 167.268V163.664H717.65C714.258 163.664 710.866 163.805 707.474 164.088C704.223 164.229 701.255 164.795 698.57 165.784C695.884 166.632 693.694 167.975 691.998 169.812C690.443 171.649 689.666 174.264 689.666 177.656C689.666 181.048 690.514 183.804 692.21 185.924C694.047 188.044 696.379 189.669 699.206 190.8C702.174 191.931 705.283 192.496 708.534 192.496ZM821.631 213.484C816.26 213.484 810.889 212.919 805.519 211.788C800.289 210.657 795.343 208.82 790.679 206.276C786.015 203.591 782.128 199.987 779.019 195.464C775.909 190.941 773.86 185.288 772.871 178.504H798.947C800.077 181.613 801.844 184.157 804.247 186.136C806.791 187.973 809.688 189.387 812.939 190.376C816.331 191.224 819.652 191.648 822.903 191.648C824.881 191.648 827.001 191.507 829.263 191.224C831.665 190.941 833.856 190.376 835.835 189.528C837.955 188.68 839.651 187.479 840.923 185.924C842.195 184.228 842.831 182.037 842.831 179.352C842.831 176.808 842.124 174.829 840.711 173.416C839.297 171.861 837.389 170.66 834.987 169.812C832.584 168.823 829.687 168.045 826.295 167.48C820.217 166.208 813.716 164.865 806.791 163.452C799.865 161.897 793.859 159.495 788.771 156.244C786.651 154.972 784.813 153.488 783.259 151.792C781.704 150.096 780.361 148.259 779.231 146.28C778.241 144.16 777.464 141.899 776.899 139.496C776.475 137.093 776.263 134.479 776.263 131.652C776.263 125.716 777.464 120.699 779.867 116.6C782.411 112.36 785.732 108.968 789.831 106.424C794.071 103.739 798.876 101.76 804.247 100.488C809.617 99.216 815.129 98.58 820.783 98.58C828.415 98.58 835.34 99.7813 841.559 102.184C847.777 104.587 852.936 108.261 857.035 113.208C861.275 118.155 863.819 124.444 864.667 132.076H840.075C839.368 128.543 837.177 125.716 833.503 123.596C829.969 121.476 825.447 120.416 819.935 120.416C817.956 120.416 815.907 120.628 813.787 121.052C811.667 121.335 809.617 121.9 807.639 122.748C805.801 123.455 804.247 124.585 802.975 126.14C801.844 127.695 801.279 129.603 801.279 131.864C801.279 133.984 801.773 135.821 802.763 137.376C803.893 138.931 805.519 140.273 807.639 141.404C809.9 142.393 812.515 143.241 815.483 143.948C820.288 144.937 825.305 145.927 830.535 146.916C835.764 147.905 840.287 148.895 844.103 149.884C848.625 151.156 852.724 152.993 856.399 155.396C860.073 157.657 862.9 160.696 864.879 164.512C866.999 168.187 868.059 172.921 868.059 178.716C868.059 185.5 866.645 191.153 863.819 195.676C861.133 200.199 857.529 203.732 853.007 206.276C848.484 208.82 843.467 210.657 837.955 211.788C832.443 212.919 827.001 213.484 821.631 213.484ZM964.744 213.484C959.515 213.484 954.568 212.777 949.904 211.364C945.24 209.951 941.071 207.901 937.396 205.216C933.721 202.389 930.753 198.927 928.492 194.828C926.372 190.588 925.312 185.641 925.312 179.988C925.312 172.78 926.725 166.915 929.552 162.392C932.379 157.728 936.195 154.195 941 151.792C945.947 149.389 951.529 147.764 957.748 146.916C963.967 145.927 970.468 145.432 977.252 145.432H999.088C999.088 140.485 998.311 136.245 996.756 132.712C995.201 129.037 992.728 126.14 989.336 124.02C986.085 121.9 981.845 120.84 976.616 120.84C973.224 120.84 970.044 121.264 967.076 122.112C964.249 122.819 961.776 124.02 959.656 125.716C957.677 127.271 956.264 129.32 955.416 131.864H928.916C929.905 126.069 931.884 121.123 934.852 117.024C937.961 112.784 941.707 109.321 946.088 106.636C950.611 103.951 955.557 101.972 960.928 100.7C966.299 99.2867 971.74 98.58 977.252 98.58C993.505 98.58 1005.31 103.244 1012.66 112.572C1020.15 121.9 1023.89 134.973 1023.89 151.792V212H1001L1000.36 197.584C997.109 202.389 993.223 205.923 988.7 208.184C984.177 210.445 979.796 211.859 975.556 212.424C971.316 213.131 967.712 213.484 964.744 213.484ZM969.832 192.496C975.485 192.496 980.503 191.436 984.884 189.316C989.265 187.196 992.728 184.228 995.272 180.412C997.957 176.596 999.3 172.215 999.3 167.268V163.664H978.948C975.556 163.664 972.164 163.805 968.772 164.088C965.521 164.229 962.553 164.795 959.868 165.784C957.183 166.632 954.992 167.975 953.296 169.812C951.741 171.649 950.964 174.264 950.964 177.656C950.964 181.048 951.812 183.804 953.508 185.924C955.345 188.044 957.677 189.669 960.504 190.8C963.472 191.931 966.581 192.496 969.832 192.496ZM1089.29 213.484C1077.7 213.484 1067.95 211.152 1060.03 206.488C1052.12 201.683 1046.11 194.969 1042.01 186.348C1037.91 177.727 1035.87 167.763 1035.87 156.456C1035.87 145.149 1037.99 135.185 1042.23 126.564C1046.47 117.801 1052.68 110.947 1060.88 106C1069.08 101.053 1079.04 98.58 1090.77 98.58C1099.39 98.58 1107.03 100.064 1113.67 103.032C1120.45 106 1125.89 110.381 1129.99 116.176C1134.23 121.829 1136.92 128.896 1138.05 137.376H1112.61C1110.91 132.005 1108.09 128.119 1104.13 125.716C1100.31 123.172 1095.72 121.9 1090.35 121.9C1083.14 121.9 1077.42 123.667 1073.18 127.2C1069.08 130.592 1066.11 134.903 1064.27 140.132C1062.44 145.361 1061.52 150.803 1061.52 156.456C1061.52 162.392 1062.51 167.975 1064.49 173.204C1066.46 178.292 1069.5 182.391 1073.6 185.5C1077.84 188.609 1083.28 190.164 1089.93 190.164C1095.3 190.164 1100.1 188.963 1104.34 186.56C1108.72 184.157 1111.55 180.271 1112.82 174.9H1139.11C1138.12 183.521 1135.22 190.729 1130.42 196.524C1125.75 202.177 1119.82 206.417 1112.61 209.244C1105.4 212.071 1097.63 213.484 1089.29 213.484ZM1150.05 212V100.276H1173.79L1175.49 112.996C1178.31 109.18 1181.35 106.283 1184.6 104.304C1187.99 102.184 1191.46 100.7 1194.99 99.852C1198.67 99.004 1202.13 98.58 1205.38 98.58C1212.45 98.58 1218.45 99.9933 1223.4 102.82C1228.49 105.647 1232.44 109.887 1235.27 115.54C1238.1 111.583 1241.28 108.403 1244.81 106C1248.34 103.456 1252.09 101.619 1256.05 100.488C1260 99.216 1264.17 98.58 1268.55 98.58C1277.18 98.58 1284.1 100.417 1289.33 104.092C1294.56 107.625 1298.38 112.572 1300.78 118.932C1303.18 125.151 1304.38 132.288 1304.38 140.344V212H1278.52V148.612C1278.52 145.785 1278.38 142.817 1278.09 139.708C1277.81 136.599 1277.03 133.701 1275.76 131.016C1274.63 128.331 1272.94 126.14 1270.67 124.444C1268.41 122.748 1265.23 121.9 1261.13 121.9C1257.04 121.9 1253.64 122.819 1250.96 124.656C1248.41 126.352 1246.29 128.684 1244.6 131.652C1243.04 134.479 1241.91 137.659 1241.21 141.192C1240.64 144.584 1240.36 147.976 1240.36 151.368V212H1214.49V148.4C1214.49 145.715 1214.28 142.888 1213.86 139.92C1213.58 136.811 1212.87 133.913 1211.74 131.228C1210.75 128.401 1209.05 126.14 1206.65 124.444C1204.39 122.748 1201.21 121.9 1197.11 121.9C1191.17 121.9 1186.65 123.525 1183.54 126.776C1180.57 130.027 1178.53 133.984 1177.39 138.648C1176.41 143.312 1175.91 147.764 1175.91 152.004V212H1150.05Z"/>
</mask>
<path d="M415.028 213.272C402.732 213.272 393.757 209.88 388.104 203.096C382.451 196.312 379.624 186.913 379.624 174.9V123.172H362.452V100.276H379.624V68.9H405.488V100.276H439.408V123.172H405.488V170.024C405.488 173.699 405.912 177.02 406.76 179.988C407.608 182.956 409.163 185.288 411.424 186.984C413.685 188.68 416.795 189.599 420.752 189.74C424.144 189.74 427.041 189.175 429.444 188.044C431.847 186.913 433.825 185.641 435.38 184.228L444.072 203.944C441.387 206.205 438.348 208.043 434.956 209.456C431.705 210.869 428.384 211.859 424.992 212.424C421.6 212.989 418.279 213.272 415.028 213.272ZM499.634 213.484C488.045 213.484 478.152 211.081 469.954 206.276C461.898 201.471 455.75 194.828 451.51 186.348C447.412 177.727 445.362 167.763 445.362 156.456C445.362 145.149 447.482 135.185 451.722 126.564C456.104 117.801 462.322 110.947 470.378 106C478.576 101.053 488.398 98.58 499.846 98.58C508.326 98.58 515.746 100.135 522.106 103.244C528.466 106.212 533.766 110.311 538.006 115.54C542.388 120.769 545.638 126.705 547.758 133.348C549.878 139.991 550.868 146.987 550.726 154.336C550.585 156.032 550.444 157.728 550.302 159.424C550.161 160.979 549.949 162.675 549.666 164.512H471.226C471.65 169.459 472.922 173.981 475.042 178.08C477.304 182.179 480.413 185.429 484.37 187.832C488.469 190.235 493.557 191.436 499.634 191.436C503.168 191.436 506.56 191.012 509.81 190.164C513.061 189.175 515.888 187.761 518.29 185.924C520.834 184.087 522.53 181.755 523.378 178.928H549.242C547.405 186.984 544.013 193.556 539.066 198.644C534.12 203.732 528.184 207.477 521.258 209.88C514.474 212.283 507.266 213.484 499.634 213.484ZM471.65 145.22H525.498C525.498 140.556 524.438 136.316 522.318 132.5C520.198 128.684 517.16 125.716 513.202 123.596C509.386 121.335 504.722 120.204 499.21 120.204C493.274 120.204 488.328 121.405 484.37 123.808C480.413 126.211 477.374 129.32 475.254 133.136C473.134 136.952 471.933 140.98 471.65 145.22ZM549.974 212L589.406 154.972L552.094 100.276H582.198L606.366 137.8L629.898 100.276H659.366L622.054 155.608L662.122 212H631.806L605.306 173.416L578.806 212H549.974ZM703.446 213.484C698.216 213.484 693.27 212.777 688.606 211.364C683.942 209.951 679.772 207.901 676.098 205.216C672.423 202.389 669.455 198.927 667.194 194.828C665.074 190.588 664.014 185.641 664.014 179.988C664.014 172.78 665.427 166.915 668.254 162.392C671.08 157.728 674.896 154.195 679.702 151.792C684.648 149.389 690.231 147.764 696.45 146.916C702.668 145.927 709.17 145.432 715.954 145.432H737.79C737.79 140.485 737.012 136.245 735.458 132.712C733.903 129.037 731.43 126.14 728.038 124.02C724.787 121.9 720.547 120.84 715.318 120.84C711.926 120.84 708.746 121.264 705.778 122.112C702.951 122.819 700.478 124.02 698.358 125.716C696.379 127.271 694.966 129.32 694.118 131.864H667.618C668.607 126.069 670.586 121.123 673.554 117.024C676.663 112.784 680.408 109.321 684.79 106.636C689.312 103.951 694.259 101.972 699.63 100.7C705 99.2867 710.442 98.58 715.954 98.58C732.207 98.58 744.008 103.244 751.358 112.572C758.848 121.9 762.594 134.973 762.594 151.792V212H739.698L739.062 197.584C735.811 202.389 731.924 205.923 727.402 208.184C722.879 210.445 718.498 211.859 714.258 212.424C710.018 213.131 706.414 213.484 703.446 213.484ZM708.534 192.496C714.187 192.496 719.204 191.436 723.586 189.316C727.967 187.196 731.43 184.228 733.974 180.412C736.659 176.596 738.002 172.215 738.002 167.268V163.664H717.65C714.258 163.664 710.866 163.805 707.474 164.088C704.223 164.229 701.255 164.795 698.57 165.784C695.884 166.632 693.694 167.975 691.998 169.812C690.443 171.649 689.666 174.264 689.666 177.656C689.666 181.048 690.514 183.804 692.21 185.924C694.047 188.044 696.379 189.669 699.206 190.8C702.174 191.931 705.283 192.496 708.534 192.496ZM821.631 213.484C816.26 213.484 810.889 212.919 805.519 211.788C800.289 210.657 795.343 208.82 790.679 206.276C786.015 203.591 782.128 199.987 779.019 195.464C775.909 190.941 773.86 185.288 772.871 178.504H798.947C800.077 181.613 801.844 184.157 804.247 186.136C806.791 187.973 809.688 189.387 812.939 190.376C816.331 191.224 819.652 191.648 822.903 191.648C824.881 191.648 827.001 191.507 829.263 191.224C831.665 190.941 833.856 190.376 835.835 189.528C837.955 188.68 839.651 187.479 840.923 185.924C842.195 184.228 842.831 182.037 842.831 179.352C842.831 176.808 842.124 174.829 840.711 173.416C839.297 171.861 837.389 170.66 834.987 169.812C832.584 168.823 829.687 168.045 826.295 167.48C820.217 166.208 813.716 164.865 806.791 163.452C799.865 161.897 793.859 159.495 788.771 156.244C786.651 154.972 784.813 153.488 783.259 151.792C781.704 150.096 780.361 148.259 779.231 146.28C778.241 144.16 777.464 141.899 776.899 139.496C776.475 137.093 776.263 134.479 776.263 131.652C776.263 125.716 777.464 120.699 779.867 116.6C782.411 112.36 785.732 108.968 789.831 106.424C794.071 103.739 798.876 101.76 804.247 100.488C809.617 99.216 815.129 98.58 820.783 98.58C828.415 98.58 835.34 99.7813 841.559 102.184C847.777 104.587 852.936 108.261 857.035 113.208C861.275 118.155 863.819 124.444 864.667 132.076H840.075C839.368 128.543 837.177 125.716 833.503 123.596C829.969 121.476 825.447 120.416 819.935 120.416C817.956 120.416 815.907 120.628 813.787 121.052C811.667 121.335 809.617 121.9 807.639 122.748C805.801 123.455 804.247 124.585 802.975 126.14C801.844 127.695 801.279 129.603 801.279 131.864C801.279 133.984 801.773 135.821 802.763 137.376C803.893 138.931 805.519 140.273 807.639 141.404C809.9 142.393 812.515 143.241 815.483 143.948C820.288 144.937 825.305 145.927 830.535 146.916C835.764 147.905 840.287 148.895 844.103 149.884C848.625 151.156 852.724 152.993 856.399 155.396C860.073 157.657 862.9 160.696 864.879 164.512C866.999 168.187 868.059 172.921 868.059 178.716C868.059 185.5 866.645 191.153 863.819 195.676C861.133 200.199 857.529 203.732 853.007 206.276C848.484 208.82 843.467 210.657 837.955 211.788C832.443 212.919 827.001 213.484 821.631 213.484ZM964.744 213.484C959.515 213.484 954.568 212.777 949.904 211.364C945.24 209.951 941.071 207.901 937.396 205.216C933.721 202.389 930.753 198.927 928.492 194.828C926.372 190.588 925.312 185.641 925.312 179.988C925.312 172.78 926.725 166.915 929.552 162.392C932.379 157.728 936.195 154.195 941 151.792C945.947 149.389 951.529 147.764 957.748 146.916C963.967 145.927 970.468 145.432 977.252 145.432H999.088C999.088 140.485 998.311 136.245 996.756 132.712C995.201 129.037 992.728 126.14 989.336 124.02C986.085 121.9 981.845 120.84 976.616 120.84C973.224 120.84 970.044 121.264 967.076 122.112C964.249 122.819 961.776 124.02 959.656 125.716C957.677 127.271 956.264 129.32 955.416 131.864H928.916C929.905 126.069 931.884 121.123 934.852 117.024C937.961 112.784 941.707 109.321 946.088 106.636C950.611 103.951 955.557 101.972 960.928 100.7C966.299 99.2867 971.74 98.58 977.252 98.58C993.505 98.58 1005.31 103.244 1012.66 112.572C1020.15 121.9 1023.89 134.973 1023.89 151.792V212H1001L1000.36 197.584C997.109 202.389 993.223 205.923 988.7 208.184C984.177 210.445 979.796 211.859 975.556 212.424C971.316 213.131 967.712 213.484 964.744 213.484ZM969.832 192.496C975.485 192.496 980.503 191.436 984.884 189.316C989.265 187.196 992.728 184.228 995.272 180.412C997.957 176.596 999.3 172.215 999.3 167.268V163.664H978.948C975.556 163.664 972.164 163.805 968.772 164.088C965.521 164.229 962.553 164.795 959.868 165.784C957.183 166.632 954.992 167.975 953.296 169.812C951.741 171.649 950.964 174.264 950.964 177.656C950.964 181.048 951.812 183.804 953.508 185.924C955.345 188.044 957.677 189.669 960.504 190.8C963.472 191.931 966.581 192.496 969.832 192.496ZM1089.29 213.484C1077.7 213.484 1067.95 211.152 1060.03 206.488C1052.12 201.683 1046.11 194.969 1042.01 186.348C1037.91 177.727 1035.87 167.763 1035.87 156.456C1035.87 145.149 1037.99 135.185 1042.23 126.564C1046.47 117.801 1052.68 110.947 1060.88 106C1069.08 101.053 1079.04 98.58 1090.77 98.58C1099.39 98.58 1107.03 100.064 1113.67 103.032C1120.45 106 1125.89 110.381 1129.99 116.176C1134.23 121.829 1136.92 128.896 1138.05 137.376H1112.61C1110.91 132.005 1108.09 128.119 1104.13 125.716C1100.31 123.172 1095.72 121.9 1090.35 121.9C1083.14 121.9 1077.42 123.667 1073.18 127.2C1069.08 130.592 1066.11 134.903 1064.27 140.132C1062.44 145.361 1061.52 150.803 1061.52 156.456C1061.52 162.392 1062.51 167.975 1064.49 173.204C1066.46 178.292 1069.5 182.391 1073.6 185.5C1077.84 188.609 1083.28 190.164 1089.93 190.164C1095.3 190.164 1100.1 188.963 1104.34 186.56C1108.72 184.157 1111.55 180.271 1112.82 174.9H1139.11C1138.12 183.521 1135.22 190.729 1130.42 196.524C1125.75 202.177 1119.82 206.417 1112.61 209.244C1105.4 212.071 1097.63 213.484 1089.29 213.484ZM1150.05 212V100.276H1173.79L1175.49 112.996C1178.31 109.18 1181.35 106.283 1184.6 104.304C1187.99 102.184 1191.46 100.7 1194.99 99.852C1198.67 99.004 1202.13 98.58 1205.38 98.58C1212.45 98.58 1218.45 99.9933 1223.4 102.82C1228.49 105.647 1232.44 109.887 1235.27 115.54C1238.1 111.583 1241.28 108.403 1244.81 106C1248.34 103.456 1252.09 101.619 1256.05 100.488C1260 99.216 1264.17 98.58 1268.55 98.58C1277.18 98.58 1284.1 100.417 1289.33 104.092C1294.56 107.625 1298.38 112.572 1300.78 118.932C1303.18 125.151 1304.38 132.288 1304.38 140.344V212H1278.52V148.612C1278.52 145.785 1278.38 142.817 1278.09 139.708C1277.81 136.599 1277.03 133.701 1275.76 131.016C1274.63 128.331 1272.94 126.14 1270.67 124.444C1268.41 122.748 1265.23 121.9 1261.13 121.9C1257.04 121.9 1253.64 122.819 1250.96 124.656C1248.41 126.352 1246.29 128.684 1244.6 131.652C1243.04 134.479 1241.91 137.659 1241.21 141.192C1240.64 144.584 1240.36 147.976 1240.36 151.368V212H1214.49V148.4C1214.49 145.715 1214.28 142.888 1213.86 139.92C1213.58 136.811 1212.87 133.913 1211.74 131.228C1210.75 128.401 1209.05 126.14 1206.65 124.444C1204.39 122.748 1201.21 121.9 1197.11 121.9C1191.17 121.9 1186.65 123.525 1183.54 126.776C1180.57 130.027 1178.53 133.984 1177.39 138.648C1176.41 143.312 1175.91 147.764 1175.91 152.004V212H1150.05Z" fill="#9E4E00"/>
<path d="M388.104 203.096L387.336 203.736L387.336 203.736L388.104 203.096ZM379.624 123.172H380.624V122.172H379.624V123.172ZM362.452 123.172H361.452V124.172H362.452V123.172ZM362.452 100.276V99.276H361.452V100.276H362.452ZM379.624 100.276V101.276H380.624V100.276H379.624ZM379.624 68.9V67.9H378.624V68.9H379.624ZM405.488 68.9H406.488V67.9H405.488V68.9ZM405.488 100.276H404.488V101.276H405.488V100.276ZM439.408 100.276H440.408V99.276H439.408V100.276ZM439.408 123.172V124.172H440.408V123.172H439.408ZM405.488 123.172V122.172H404.488V123.172H405.488ZM406.76 179.988L405.798 180.263L405.798 180.263L406.76 179.988ZM411.424 186.984L410.824 187.784L410.824 187.784L411.424 186.984ZM420.752 189.74L420.716 190.739L420.734 190.74H420.752V189.74ZM435.38 184.228L436.295 183.825L435.735 182.554L434.707 183.488L435.38 184.228ZM444.072 203.944L444.716 204.709L445.289 204.226L444.987 203.541L444.072 203.944ZM434.956 209.456L434.571 208.533L434.564 208.536L434.557 208.539L434.956 209.456ZM424.992 212.424L425.156 213.41L424.992 212.424ZM415.028 213.272V212.272C402.907 212.272 394.269 208.932 388.872 202.456L388.104 203.096L387.336 203.736C393.245 210.828 402.557 214.272 415.028 214.272V213.272ZM388.104 203.096L388.872 202.456C383.415 195.907 380.624 186.764 380.624 174.9H379.624H378.624C378.624 187.063 381.486 196.717 387.336 203.736L388.104 203.096ZM379.624 174.9H380.624V123.172H379.624H378.624V174.9H379.624ZM379.624 123.172V122.172H362.452V123.172V124.172H379.624V123.172ZM362.452 123.172H363.452V100.276H362.452H361.452V123.172H362.452ZM362.452 100.276V101.276H379.624V100.276V99.276H362.452V100.276ZM379.624 100.276H380.624V68.9H379.624H378.624V100.276H379.624ZM379.624 68.9V69.9H405.488V68.9V67.9H379.624V68.9ZM405.488 68.9H404.488V100.276H405.488H406.488V68.9H405.488ZM405.488 100.276V101.276H439.408V100.276V99.276H405.488V100.276ZM439.408 100.276H438.408V123.172H439.408H440.408V100.276H439.408ZM439.408 123.172V122.172H405.488V123.172V124.172H439.408V123.172ZM405.488 123.172H404.488V170.024H405.488H406.488V123.172H405.488ZM405.488 170.024H404.488C404.488 173.774 404.921 177.19 405.798 180.263L406.76 179.988L407.722 179.713C406.903 176.85 406.488 173.623 406.488 170.024H405.488ZM406.76 179.988L405.798 180.263C406.701 183.42 408.372 185.945 410.824 187.784L411.424 186.984L412.024 186.184C409.954 184.631 408.515 182.492 407.722 179.713L406.76 179.988ZM411.424 186.984L410.824 187.784C413.302 189.643 416.634 190.594 420.716 190.739L420.752 189.74L420.788 188.741C416.955 188.604 414.068 187.717 412.024 186.184L411.424 186.984ZM420.752 189.74V190.74C424.252 190.74 427.302 190.157 429.87 188.949L429.444 188.044L429.018 187.139C426.78 188.192 424.036 188.74 420.752 188.74V189.74ZM429.444 188.044L429.87 188.949C432.34 187.786 434.408 186.463 436.053 184.968L435.38 184.228L434.707 183.488C433.243 184.82 431.353 186.04 429.018 187.139L429.444 188.044ZM435.38 184.228L434.465 184.631L443.157 204.347L444.072 203.944L444.987 203.541L436.295 183.825L435.38 184.228ZM444.072 203.944L443.428 203.179C440.824 205.372 437.874 207.157 434.571 208.533L434.956 209.456L435.341 210.379C438.822 208.928 441.949 207.039 444.716 204.709L444.072 203.944ZM434.956 209.456L434.557 208.539C431.379 209.921 428.136 210.886 424.828 211.438L424.992 212.424L425.156 213.41C428.632 212.831 432.031 211.818 435.355 210.373L434.956 209.456ZM424.992 212.424L424.828 211.438C421.487 211.994 418.221 212.272 415.028 212.272V213.272V214.272C418.337 214.272 421.713 213.984 425.156 213.41L424.992 212.424ZM469.954 206.276L469.442 207.135L469.449 207.139L469.954 206.276ZM451.51 186.348L450.607 186.777L450.611 186.786L450.616 186.795L451.51 186.348ZM451.722 126.564L450.828 126.117L450.825 126.123L451.722 126.564ZM470.378 106L469.862 105.144L469.855 105.148L470.378 106ZM522.106 103.244L521.667 104.142L521.675 104.146L521.683 104.15L522.106 103.244ZM538.006 115.54L537.229 116.17L537.235 116.176L537.24 116.182L538.006 115.54ZM547.758 133.348L548.711 133.044L548.711 133.044L547.758 133.348ZM550.726 154.336L551.723 154.419L551.725 154.387L551.726 154.355L550.726 154.336ZM550.302 159.424L551.298 159.515L551.299 159.507L550.302 159.424ZM549.666 164.512V165.512H550.524L550.655 164.664L549.666 164.512ZM471.226 164.512V163.512H470.137L470.23 164.597L471.226 164.512ZM475.042 178.08L474.154 178.539L474.16 178.551L474.167 178.563L475.042 178.08ZM484.37 187.832L483.851 188.687L483.858 188.691L483.865 188.695L484.37 187.832ZM509.81 190.164L510.063 191.132L510.082 191.127L510.101 191.121L509.81 190.164ZM518.29 185.924L517.705 185.113L517.694 185.121L517.683 185.13L518.29 185.924ZM523.378 178.928V177.928H522.634L522.42 178.641L523.378 178.928ZM549.242 178.928L550.217 179.15L550.496 177.928H549.242V178.928ZM539.066 198.644L539.783 199.341L539.783 199.341L539.066 198.644ZM521.258 209.88L520.93 208.935L520.924 208.937L521.258 209.88ZM471.65 145.22L470.652 145.153L470.581 146.22H471.65V145.22ZM525.498 145.22V146.22H526.498V145.22H525.498ZM522.318 132.5L521.444 132.986L521.444 132.986L522.318 132.5ZM513.202 123.596L512.692 124.456L512.711 124.467L512.73 124.477L513.202 123.596ZM484.37 123.808L484.889 124.663L484.889 124.663L484.37 123.808ZM475.254 133.136L476.128 133.622L476.128 133.622L475.254 133.136ZM499.634 213.484V212.484C488.184 212.484 478.473 210.111 470.46 205.413L469.954 206.276L469.449 207.139C477.83 212.052 487.906 214.484 499.634 214.484V213.484ZM469.954 206.276L470.467 205.417C462.576 200.711 456.56 194.212 452.405 185.901L451.51 186.348L450.616 186.795C454.94 195.444 461.22 202.231 469.442 207.135L469.954 206.276ZM451.51 186.348L452.413 185.919C448.389 177.454 446.362 167.641 446.362 156.456H445.362H444.362C444.362 167.884 446.434 177.999 450.607 186.777L451.51 186.348ZM445.362 156.456H446.362C446.362 145.275 448.458 135.467 452.62 127.005L451.722 126.564L450.825 126.123C446.506 134.904 444.362 145.023 444.362 156.456H445.362ZM451.722 126.564L452.617 127.011C456.918 118.409 463.011 111.697 470.901 106.852L470.378 106L469.855 105.148C461.634 110.196 455.289 117.194 450.828 126.117L451.722 126.564ZM470.378 106L470.895 106.856C478.908 102.021 488.544 99.58 499.846 99.58V98.58V97.58C488.252 97.58 478.243 100.086 469.862 105.144L470.378 106ZM499.846 98.58V99.58C508.204 99.58 515.468 101.112 521.667 104.142L522.106 103.244L522.545 102.346C516.024 99.1575 508.449 97.58 499.846 97.58V98.58ZM522.106 103.244L521.683 104.15C527.912 107.057 533.089 111.063 537.229 116.17L538.006 115.54L538.783 114.91C534.443 109.558 529.02 105.367 522.529 102.338L522.106 103.244ZM538.006 115.54L537.24 116.182C541.536 121.31 544.724 127.13 546.806 133.652L547.758 133.348L548.711 133.044C546.552 126.28 543.239 120.229 538.773 114.898L538.006 115.54ZM547.758 133.348L546.806 133.652C548.89 140.185 549.866 147.071 549.726 154.317L550.726 154.336L551.726 154.355C551.869 146.902 550.866 139.797 548.711 133.044L547.758 133.348ZM550.726 154.336L549.73 154.253C549.588 155.949 549.447 157.645 549.306 159.341L550.302 159.424L551.299 159.507C551.44 157.811 551.581 156.115 551.723 154.419L550.726 154.336ZM550.302 159.424L549.306 159.333C549.167 160.864 548.958 162.539 548.678 164.36L549.666 164.512L550.655 164.664C550.94 162.81 551.155 161.093 551.298 159.515L550.302 159.424ZM549.666 164.512V163.512H471.226V164.512V165.512H549.666V164.512ZM471.226 164.512L470.23 164.597C470.664 169.665 471.969 174.316 474.154 178.539L475.042 178.08L475.93 177.621C473.875 173.647 472.636 169.253 472.223 164.427L471.226 164.512ZM475.042 178.08L474.167 178.563C476.511 182.813 479.743 186.192 483.851 188.687L484.37 187.832L484.889 186.977C481.083 184.666 478.096 181.544 475.918 177.597L475.042 178.08ZM484.37 187.832L483.865 188.695C488.154 191.209 493.428 192.436 499.634 192.436V191.436V190.436C493.686 190.436 488.784 189.26 484.876 186.969L484.37 187.832ZM499.634 191.436V192.436C503.248 192.436 506.725 192.002 510.063 191.132L509.81 190.164L509.558 189.196C506.394 190.022 503.087 190.436 499.634 190.436V191.436ZM509.81 190.164L510.101 191.121C513.452 190.101 516.389 188.637 518.898 186.718L518.29 185.924L517.683 185.13C515.386 186.886 512.669 188.249 509.519 189.207L509.81 190.164ZM518.29 185.924L518.876 186.735C521.586 184.777 523.421 182.266 524.336 179.215L523.378 178.928L522.42 178.641C521.64 181.243 520.083 183.396 517.705 185.113L518.29 185.924ZM523.378 178.928V179.928H549.242V178.928V177.928H523.378V178.928ZM549.242 178.928L548.267 178.706C546.464 186.613 543.148 193.011 538.349 197.947L539.066 198.644L539.783 199.341C544.878 194.101 548.346 187.355 550.217 179.15L549.242 178.928ZM539.066 198.644L538.349 197.947C533.515 202.919 527.714 206.582 520.93 208.935L521.258 209.88L521.586 210.825C528.654 208.373 534.724 204.545 539.783 199.341L539.066 198.644ZM521.258 209.88L520.924 208.937C514.254 211.3 507.159 212.484 499.634 212.484V213.484V214.484C507.373 214.484 514.695 213.266 521.592 210.823L521.258 209.88ZM471.65 145.22V146.22H525.498V145.22V144.22H471.65V145.22ZM525.498 145.22H526.498C526.498 140.398 525.401 135.989 523.192 132.014L522.318 132.5L521.444 132.986C523.476 136.643 524.498 140.714 524.498 145.22H525.498ZM522.318 132.5L523.192 132.014C520.976 128.026 517.796 124.922 513.674 122.715L513.202 123.596L512.73 124.477C516.523 126.51 519.42 129.342 521.444 132.986L522.318 132.5ZM513.202 123.596L513.712 122.736C509.708 120.363 504.858 119.204 499.21 119.204V120.204V121.204C504.586 121.204 509.064 122.306 512.692 124.456L513.202 123.596ZM499.21 120.204V119.204C493.142 119.204 488.003 120.432 483.851 122.953L484.37 123.808L484.889 124.663C488.652 122.378 493.406 121.204 499.21 121.204V120.204ZM484.37 123.808L483.851 122.953C479.755 125.44 476.59 128.673 474.38 132.65L475.254 133.136L476.128 133.622C478.159 129.967 481.071 126.981 484.889 124.663L484.37 123.808ZM475.254 133.136L474.38 132.65C472.19 136.592 470.945 140.762 470.652 145.153L471.65 145.22L472.648 145.287C472.921 141.198 474.078 137.312 476.128 133.622L475.254 133.136ZM549.974 212L549.152 211.431L548.067 213H549.974V212ZM589.406 154.972L590.229 155.541L590.619 154.976L590.232 154.408L589.406 154.972ZM552.094 100.276V99.276H550.202L551.268 100.84L552.094 100.276ZM582.198 100.276L583.039 99.7345L582.744 99.276H582.198V100.276ZM606.366 137.8L605.526 138.341L606.378 139.664L607.213 138.331L606.366 137.8ZM629.898 100.276V99.276H629.345L629.051 99.7447L629.898 100.276ZM659.366 100.276L660.195 100.835L661.247 99.276H659.366V100.276ZM622.054 155.608L621.225 155.049L620.838 155.623L621.239 156.187L622.054 155.608ZM662.122 212V213H664.06L662.937 211.421L662.122 212ZM631.806 212L630.982 212.566L631.28 213H631.806V212ZM605.306 173.416L606.131 172.85L605.306 171.65L604.482 172.85L605.306 173.416ZM578.806 212V213H579.333L579.631 212.566L578.806 212ZM549.974 212L550.797 212.569L590.229 155.541L589.406 154.972L588.584 154.403L549.152 211.431L549.974 212ZM589.406 154.972L590.232 154.408L552.92 99.7125L552.094 100.276L551.268 100.84L588.58 155.536L589.406 154.972ZM552.094 100.276V101.276H582.198V100.276V99.276H552.094V100.276ZM582.198 100.276L581.358 100.817L605.526 138.341L606.366 137.8L607.207 137.259L583.039 99.7345L582.198 100.276ZM606.366 137.8L607.213 138.331L630.745 100.807L629.898 100.276L629.051 99.7447L605.519 137.269L606.366 137.8ZM629.898 100.276V101.276H659.366V100.276V99.276H629.898V100.276ZM659.366 100.276L658.537 99.7169L621.225 155.049L622.054 155.608L622.883 156.167L660.195 100.835L659.366 100.276ZM622.054 155.608L621.239 156.187L661.307 212.579L662.122 212L662.937 211.421L622.869 155.029L622.054 155.608ZM662.122 212V211H631.806V212V213H662.122V212ZM631.806 212L632.631 211.434L606.131 172.85L605.306 173.416L604.482 173.982L630.982 212.566L631.806 212ZM605.306 173.416L604.482 172.85L577.982 211.434L578.806 212L579.631 212.566L606.131 173.982L605.306 173.416ZM578.806 212V211H549.974V212V213H578.806V212ZM688.606 211.364L688.316 212.321L688.316 212.321L688.606 211.364ZM676.098 205.216L675.488 206.009L675.498 206.016L675.508 206.023L676.098 205.216ZM667.194 194.828L666.299 195.275L666.308 195.293L666.318 195.311L667.194 194.828ZM668.254 162.392L669.102 162.922L669.109 162.91L668.254 162.392ZM679.702 151.792L679.265 150.892L679.255 150.898L679.702 151.792ZM696.45 146.916L696.585 147.907L696.596 147.905L696.607 147.904L696.45 146.916ZM737.79 145.432V146.432H738.79V145.432H737.79ZM735.458 132.712L734.537 133.102L734.54 133.108L734.542 133.115L735.458 132.712ZM728.038 124.02L727.491 124.858L727.5 124.863L727.508 124.868L728.038 124.02ZM705.778 122.112L706.02 123.082L706.036 123.078L706.052 123.074L705.778 122.112ZM698.358 125.716L698.976 126.502L698.982 126.497L698.358 125.716ZM694.118 131.864V132.864H694.838L695.066 132.18L694.118 131.864ZM667.618 131.864L666.632 131.696L666.433 132.864H667.618V131.864ZM673.554 117.024L672.747 116.433L672.744 116.437L673.554 117.024ZM684.79 106.636L684.279 105.776L684.267 105.783L684.79 106.636ZM699.63 100.7L699.86 101.673L699.872 101.67L699.884 101.667L699.63 100.7ZM751.358 112.572L750.572 113.191L750.578 113.198L751.358 112.572ZM762.594 212V213H763.594V212H762.594ZM739.698 212L738.699 212.044L738.741 213H739.698V212ZM739.062 197.584L740.061 197.54L739.927 194.519L738.233 197.024L739.062 197.584ZM727.402 208.184L726.955 207.29L726.955 207.29L727.402 208.184ZM714.258 212.424L714.126 211.433L714.109 211.435L714.093 211.438L714.258 212.424ZM723.586 189.316L724.021 190.216L724.021 190.216L723.586 189.316ZM733.974 180.412L733.156 179.837L733.149 179.847L733.142 179.857L733.974 180.412ZM738.002 163.664H739.002V162.664H738.002V163.664ZM707.474 164.088L707.517 165.087L707.537 165.086L707.557 165.085L707.474 164.088ZM698.57 165.784L698.871 166.738L698.893 166.73L698.915 166.722L698.57 165.784ZM691.998 169.812L691.263 169.134L691.248 169.15L691.234 169.166L691.998 169.812ZM692.21 185.924L691.429 186.549L691.441 186.564L691.454 186.579L692.21 185.924ZM699.206 190.8L698.834 191.728L698.842 191.732L698.85 191.734L699.206 190.8ZM703.446 213.484V212.484C698.307 212.484 693.459 211.79 688.896 210.407L688.606 211.364L688.316 212.321C693.08 213.765 698.125 214.484 703.446 214.484V213.484ZM688.606 211.364L688.896 210.407C684.332 209.024 680.265 207.023 676.688 204.409L676.098 205.216L675.508 206.023C679.279 208.78 683.552 210.877 688.316 212.321L688.606 211.364ZM676.098 205.216L676.707 204.423C673.143 201.681 670.265 198.324 668.069 194.345L667.194 194.828L666.318 195.311C668.645 199.529 671.703 203.097 675.488 206.009L676.098 205.216ZM667.194 194.828L668.088 194.381C666.05 190.304 665.014 185.516 665.014 179.988H664.014H663.014C663.014 185.767 664.098 190.872 666.299 195.275L667.194 194.828ZM664.014 179.988H665.014C665.014 172.904 666.404 167.239 669.102 162.922L668.254 162.392L667.406 161.862C664.451 166.59 663.014 172.656 663.014 179.988H664.014ZM668.254 162.392L669.109 162.91C671.839 158.405 675.515 155.003 680.149 152.686L679.702 151.792L679.255 150.898C674.278 153.386 670.321 157.051 667.399 161.874L668.254 162.392ZM679.702 151.792L680.139 152.692C684.978 150.341 690.456 148.743 696.585 147.907L696.45 146.916L696.315 145.925C690.006 146.785 684.319 148.438 679.265 150.892L679.702 151.792ZM696.45 146.916L696.607 147.904C702.77 146.923 709.218 146.432 715.954 146.432V145.432V144.432C709.121 144.432 702.567 144.93 696.293 145.928L696.45 146.916ZM715.954 145.432V146.432H737.79V145.432V144.432H715.954V145.432ZM737.79 145.432H738.79C738.79 140.384 737.997 136 736.373 132.309L735.458 132.712L734.542 133.115C736.028 136.491 736.79 140.586 736.79 145.432H737.79ZM735.458 132.712L736.379 132.322C734.744 128.458 732.134 125.401 728.568 123.172L728.038 124.02L727.508 124.868C730.726 126.879 733.062 129.617 734.537 133.102L735.458 132.712ZM728.038 124.02L728.584 123.182C725.123 120.925 720.675 119.84 715.318 119.84V120.84V121.84C720.419 121.84 724.451 122.875 727.491 124.858L728.038 124.02ZM715.318 120.84V119.84C711.842 119.84 708.569 120.275 705.503 121.15L705.778 122.112L706.052 123.074C708.923 122.253 712.01 121.84 715.318 121.84V120.84ZM705.778 122.112L705.535 121.142C702.579 121.881 699.973 123.143 697.733 124.935L698.358 125.716L698.982 126.497C700.982 124.897 703.323 123.757 706.02 123.082L705.778 122.112ZM698.358 125.716L697.74 124.93C695.597 126.613 694.075 128.831 693.169 131.548L694.118 131.864L695.066 132.18C695.857 129.809 697.161 127.928 698.976 126.502L698.358 125.716ZM694.118 131.864V130.864H667.618V131.864V132.864H694.118V131.864ZM667.618 131.864L668.603 132.032C669.571 126.364 671.499 121.566 674.364 117.611L673.554 117.024L672.744 116.437C669.672 120.679 667.643 125.774 666.632 131.696L667.618 131.864ZM673.554 117.024L674.36 117.615C677.395 113.478 681.044 110.105 685.312 107.489L684.79 106.636L684.267 105.783C679.773 108.538 675.932 112.09 672.747 116.433L673.554 117.024ZM684.79 106.636L685.3 107.496C689.732 104.865 694.583 102.923 699.86 101.673L699.63 100.7L699.399 99.7269C693.935 101.021 688.893 103.037 684.279 105.776L684.79 106.636ZM699.63 100.7L699.884 101.667C705.172 100.275 710.528 99.58 715.954 99.58V98.58V97.58C710.355 97.58 704.828 98.2979 699.375 99.7329L699.63 100.7ZM715.954 98.58V99.58C732.021 99.58 743.476 104.184 750.572 113.191L751.358 112.572L752.143 111.953C744.541 102.304 732.393 97.58 715.954 97.58V98.58ZM751.358 112.572L750.578 113.198C757.878 122.289 761.594 135.11 761.594 151.792H762.594H763.594C763.594 134.836 759.819 121.511 752.137 111.946L751.358 112.572ZM762.594 151.792H761.594V212H762.594H763.594V151.792H762.594ZM762.594 212V211H739.698V212V213H762.594V212ZM739.698 212L740.697 211.956L740.061 197.54L739.062 197.584L738.063 197.628L738.699 212.044L739.698 212ZM739.062 197.584L738.233 197.024C735.065 201.708 731.302 205.116 726.955 207.29L727.402 208.184L727.849 209.078C732.547 206.73 736.557 203.071 739.89 198.144L739.062 197.584ZM727.402 208.184L726.955 207.29C722.513 209.51 718.238 210.884 714.126 211.433L714.258 212.424L714.39 213.415C718.757 212.833 723.245 211.38 727.849 209.078L727.402 208.184ZM714.258 212.424L714.093 211.438C709.886 212.139 706.34 212.484 703.446 212.484V213.484V214.484C706.487 214.484 710.15 214.122 714.422 213.41L714.258 212.424ZM708.534 192.496V193.496C714.314 193.496 719.484 192.412 724.021 190.216L723.586 189.316L723.15 188.416C718.925 190.46 714.06 191.496 708.534 191.496V192.496ZM723.586 189.316L724.021 190.216C728.553 188.023 732.157 184.94 734.806 180.967L733.974 180.412L733.142 179.857C730.703 183.516 727.381 186.369 723.15 188.416L723.586 189.316ZM733.974 180.412L734.792 180.987C737.603 176.993 739.002 172.408 739.002 167.268H738.002H737.002C737.002 172.022 735.715 176.199 733.156 179.837L733.974 180.412ZM738.002 167.268H739.002V163.664H738.002H737.002V167.268H738.002ZM738.002 163.664V162.664H717.65V163.664V164.664H738.002V163.664ZM717.65 163.664V162.664C714.23 162.664 710.81 162.806 707.391 163.091L707.474 164.088L707.557 165.085C710.921 164.804 714.286 164.664 717.65 164.664V163.664ZM707.474 164.088L707.43 163.089C704.09 163.234 701.019 163.816 698.224 164.846L698.57 165.784L698.915 166.722C701.491 165.773 704.356 165.225 707.517 165.087L707.474 164.088ZM698.57 165.784L698.269 164.83C695.439 165.724 693.091 167.153 691.263 169.134L691.998 169.812L692.733 170.49C694.296 168.796 696.33 167.54 698.871 166.738L698.57 165.784ZM691.998 169.812L691.234 169.166C689.475 171.246 688.666 174.123 688.666 177.656H689.666H690.666C690.666 174.405 691.411 172.053 692.761 170.458L691.998 169.812ZM689.666 177.656H688.666C688.666 181.217 689.559 184.211 691.429 186.549L692.21 185.924L692.991 185.299C691.469 183.397 690.666 180.879 690.666 177.656H689.666ZM692.21 185.924L691.454 186.579C693.405 188.83 695.872 190.544 698.834 191.728L699.206 190.8L699.577 189.872C696.886 188.795 694.69 187.258 692.965 185.269L692.21 185.924ZM699.206 190.8L698.85 191.734C701.934 192.909 705.164 193.496 708.534 193.496V192.496V191.496C705.402 191.496 702.413 190.952 699.562 189.866L699.206 190.8ZM805.519 211.788L805.307 212.765L805.313 212.767L805.519 211.788ZM790.679 206.276L790.18 207.143L790.19 207.148L790.2 207.154L790.679 206.276ZM779.019 195.464L778.195 196.031L778.195 196.031L779.019 195.464ZM772.871 178.504V177.504H771.714L771.881 178.648L772.871 178.504ZM798.947 178.504L799.887 178.162L799.647 177.504H798.947V178.504ZM804.247 186.136L803.611 186.908L803.636 186.928L803.661 186.947L804.247 186.136ZM812.939 190.376L812.648 191.333L812.672 191.34L812.696 191.346L812.939 190.376ZM829.263 191.224L829.146 190.231L829.139 190.232L829.263 191.224ZM835.835 189.528L835.463 188.6L835.452 188.604L835.441 188.609L835.835 189.528ZM840.923 185.924L841.697 186.557L841.71 186.541L841.723 186.524L840.923 185.924ZM840.711 173.416L839.971 174.089L839.987 174.106L840.004 174.123L840.711 173.416ZM834.987 169.812L834.606 170.737L834.63 170.746L834.654 170.755L834.987 169.812ZM826.295 167.48L826.09 168.459L826.11 168.463L826.13 168.466L826.295 167.48ZM806.791 163.452L806.572 164.428L806.581 164.43L806.591 164.432L806.791 163.452ZM788.771 156.244L789.309 155.401L789.297 155.394L789.285 155.387L788.771 156.244ZM783.259 151.792L782.522 152.468L783.259 151.792ZM779.231 146.28L778.325 146.703L778.342 146.74L778.363 146.776L779.231 146.28ZM776.899 139.496L775.914 139.67L775.919 139.698L775.925 139.725L776.899 139.496ZM779.867 116.6L779.009 116.085L779.004 116.094L779.867 116.6ZM789.831 106.424L790.358 107.274L790.366 107.269L789.831 106.424ZM841.559 102.184L841.198 103.117L841.198 103.117L841.559 102.184ZM857.035 113.208L856.265 113.846L856.27 113.852L856.276 113.859L857.035 113.208ZM864.667 132.076V133.076H865.784L865.661 131.966L864.667 132.076ZM840.075 132.076L839.094 132.272L839.255 133.076H840.075V132.076ZM833.503 123.596L832.988 124.453L832.996 124.458L833.003 124.462L833.503 123.596ZM813.787 121.052L813.919 122.043L813.951 122.039L813.983 122.033L813.787 121.052ZM807.639 122.748L807.998 123.681L808.015 123.675L808.033 123.667L807.639 122.748ZM802.975 126.14L802.201 125.507L802.183 125.529L802.166 125.552L802.975 126.14ZM802.763 137.376L801.919 137.913L801.936 137.939L801.954 137.964L802.763 137.376ZM807.639 141.404L807.168 142.286L807.202 142.305L807.238 142.32L807.639 141.404ZM815.483 143.948L815.251 144.921L815.266 144.924L815.281 144.927L815.483 143.948ZM844.103 149.884L844.374 148.921L844.364 148.919L844.354 148.916L844.103 149.884ZM856.399 155.396L855.852 156.233L855.863 156.24L855.875 156.248L856.399 155.396ZM864.879 164.512L863.991 164.972L864.001 164.992L864.013 165.012L864.879 164.512ZM863.819 195.676L862.971 195.146L862.965 195.156L862.959 195.165L863.819 195.676ZM853.007 206.276L853.497 207.148L853.007 206.276ZM837.955 211.788L838.156 212.768L838.156 212.768L837.955 211.788ZM821.631 213.484V212.484C816.331 212.484 811.029 211.926 805.725 210.809L805.519 211.788L805.313 212.767C810.75 213.911 816.189 214.484 821.631 214.484V213.484ZM805.519 211.788L805.73 210.811C800.594 209.7 795.737 207.896 791.158 205.398L790.679 206.276L790.2 207.154C794.948 209.744 799.985 211.615 805.307 212.765L805.519 211.788ZM790.679 206.276L791.178 205.409C786.646 202.8 782.869 199.3 779.843 194.897L779.019 195.464L778.195 196.031C781.387 200.674 785.384 204.381 790.18 207.143L790.679 206.276ZM779.019 195.464L779.843 194.897C776.839 190.528 774.833 185.029 773.86 178.36L772.871 178.504L771.881 178.648C772.887 185.547 774.98 191.354 778.195 196.031L779.019 195.464ZM772.871 178.504V179.504H798.947V178.504V177.504H772.871V178.504ZM798.947 178.504L798.007 178.846C799.195 182.112 801.062 184.808 803.611 186.908L804.247 186.136L804.882 185.364C802.627 183.506 800.96 181.115 799.887 178.162L798.947 178.504ZM804.247 186.136L803.661 186.947C806.302 188.854 809.3 190.314 812.648 191.333L812.939 190.376L813.23 189.419C810.076 188.459 807.28 187.093 804.832 185.325L804.247 186.136ZM812.939 190.376L812.696 191.346C816.162 192.212 819.564 192.648 822.903 192.648V191.648V190.648C819.74 190.648 816.5 190.236 813.181 189.406L812.939 190.376ZM822.903 191.648V192.648C824.929 192.648 827.09 192.503 829.387 192.216L829.263 191.224L829.139 190.232C826.913 190.51 824.834 190.648 822.903 190.648V191.648ZM829.263 191.224L829.38 192.217C831.866 191.925 834.152 191.337 836.229 190.447L835.835 189.528L835.441 188.609C833.561 189.415 831.465 189.958 829.146 190.231L829.263 191.224ZM835.835 189.528L836.206 190.456C838.461 189.554 840.304 188.26 841.697 186.557L840.923 185.924L840.149 185.291C838.998 186.698 837.448 187.806 835.463 188.6L835.835 189.528ZM840.923 185.924L841.723 186.524C843.156 184.613 843.831 182.195 843.831 179.352H842.831H841.831C841.831 181.879 841.234 183.843 840.123 185.324L840.923 185.924ZM842.831 179.352H843.831C843.831 176.619 843.066 174.357 841.418 172.709L840.711 173.416L840.004 174.123C841.182 175.301 841.831 176.997 841.831 179.352H842.831ZM840.711 173.416L841.451 172.743C839.905 171.043 837.845 169.76 835.32 168.869L834.987 169.812L834.654 170.755C836.934 171.56 838.69 172.68 839.971 174.089L840.711 173.416ZM834.987 169.812L835.368 168.887C832.877 167.862 829.903 167.068 826.459 166.494L826.295 167.48L826.13 168.466C829.47 169.023 832.291 169.783 834.606 170.737L834.987 169.812ZM826.295 167.48L826.5 166.501C820.42 165.229 813.917 163.886 806.991 162.472L806.791 163.452L806.591 164.432C813.515 165.845 820.014 167.187 826.09 168.459L826.295 167.48ZM806.791 163.452L807.01 162.476C800.178 160.943 794.284 158.58 789.309 155.401L788.771 156.244L788.232 157.087C793.434 160.41 799.552 162.852 806.572 164.428L806.791 163.452ZM788.771 156.244L789.285 155.387C787.242 154.16 785.481 152.736 783.996 151.116L783.259 151.792L782.522 152.468C784.146 154.24 786.06 155.784 788.256 157.101L788.771 156.244ZM783.259 151.792L783.996 151.116C782.491 149.475 781.192 147.697 780.099 145.784L779.231 146.28L778.363 146.776C779.53 148.82 780.917 150.717 782.522 152.468L783.259 151.792ZM779.231 146.28L780.137 145.857C779.178 143.803 778.423 141.607 777.872 139.267L776.899 139.496L775.925 139.725C776.506 142.191 777.305 144.517 778.325 146.703L779.231 146.28ZM776.899 139.496L777.884 139.322C777.471 136.985 777.263 134.429 777.263 131.652H776.263H775.263C775.263 134.528 775.478 137.202 775.914 139.67L776.899 139.496ZM776.263 131.652H777.263C777.263 125.85 778.437 121.017 780.729 117.106L779.867 116.6L779.004 116.094C776.492 120.38 775.263 125.582 775.263 131.652H776.263ZM779.867 116.6L780.724 117.114C783.189 113.007 786.398 109.732 790.358 107.274L789.831 106.424L789.303 105.574C785.066 108.204 781.633 111.713 779.009 116.086L779.867 116.6ZM789.831 106.424L790.366 107.269C794.503 104.648 799.204 102.71 804.477 101.461L804.247 100.488L804.016 99.5149C798.548 100.81 793.638 102.829 789.296 105.579L789.831 106.424ZM804.247 100.488L804.477 101.461C809.771 100.207 815.205 99.58 820.783 99.58V98.58V97.58C815.054 97.58 809.464 98.2246 804.016 99.5149L804.247 100.488ZM820.783 98.58V99.58C828.309 99.58 835.11 100.764 841.198 103.117L841.559 102.184L841.919 101.251C835.57 98.7982 828.52 97.58 820.783 97.58V98.58ZM841.559 102.184L841.198 103.117C847.264 105.46 852.279 109.036 856.265 113.846L857.035 113.208L857.805 112.57C853.593 107.487 848.291 103.713 841.919 101.251L841.559 102.184ZM857.035 113.208L856.276 113.859C860.363 118.627 862.843 124.718 863.673 132.186L864.667 132.076L865.661 131.966C864.795 124.17 862.187 117.682 857.794 112.557L857.035 113.208ZM864.667 132.076V131.076H840.075V132.076V133.076H864.667V132.076ZM840.075 132.076L841.055 131.88C840.282 128.014 837.878 124.966 834.002 122.73L833.503 123.596L833.003 124.462C836.477 126.466 838.454 129.072 839.094 132.272L840.075 132.076ZM833.503 123.596L834.017 122.739C830.285 120.499 825.569 119.416 819.935 119.416V120.416V121.416C825.325 121.416 829.654 122.453 832.988 124.453L833.503 123.596ZM819.935 120.416V119.416C817.885 119.416 815.769 119.636 813.591 120.071L813.787 121.052L813.983 122.033C816.044 121.62 818.028 121.416 819.935 121.416V120.416ZM813.787 121.052L813.655 120.061C811.444 120.356 809.307 120.945 807.245 121.829L807.639 122.748L808.033 123.667C809.928 122.855 811.89 122.314 813.919 122.043L813.787 121.052ZM807.639 122.748L807.28 121.815C805.277 122.585 803.58 123.821 802.201 125.507L802.975 126.14L803.749 126.773C804.913 125.35 806.326 124.324 807.998 123.681L807.639 122.748ZM802.975 126.14L802.166 125.552C800.89 127.306 800.279 129.43 800.279 131.864H801.279H802.279C802.279 129.776 802.798 128.083 803.784 126.728L802.975 126.14ZM801.279 131.864H800.279C800.279 134.145 800.813 136.175 801.919 137.913L802.763 137.376L803.606 136.839C802.734 135.468 802.279 133.823 802.279 131.864H801.279ZM802.763 137.376L801.954 137.964C803.193 139.668 804.947 141.102 807.168 142.286L807.639 141.404L808.109 140.522C806.09 139.445 804.594 138.193 803.572 136.788L802.763 137.376ZM807.639 141.404L807.238 142.32C809.565 143.338 812.238 144.203 815.251 144.921L815.483 143.948L815.714 142.975C812.791 142.279 810.235 141.448 808.04 140.488L807.639 141.404ZM815.483 143.948L815.281 144.927C820.092 145.918 825.115 146.908 830.349 147.899L830.535 146.916L830.721 145.933C825.496 144.945 820.484 143.957 815.684 142.969L815.483 143.948ZM830.535 146.916L830.349 147.899C835.563 148.885 840.063 149.87 843.852 150.852L844.103 149.884L844.354 148.916C840.51 147.92 835.965 146.926 830.721 145.933L830.535 146.916ZM844.103 149.884L843.832 150.847C848.264 152.093 852.268 153.89 855.852 156.233L856.399 155.396L856.946 154.559C853.18 152.097 848.987 150.219 844.374 148.921L844.103 149.884ZM856.399 155.396L855.875 156.248C859.395 158.414 862.096 161.318 863.991 164.972L864.879 164.512L865.767 164.052C863.704 160.074 860.751 156.9 856.923 154.544L856.399 155.396ZM864.879 164.512L864.013 165.012C866.019 168.489 867.059 173.035 867.059 178.716H868.059H869.059C869.059 172.807 867.979 167.885 865.745 164.012L864.879 164.512ZM868.059 178.716H867.059C867.059 185.363 865.674 190.82 862.971 195.146L863.819 195.676L864.667 196.206C867.616 191.486 869.059 185.637 869.059 178.716H868.059ZM863.819 195.676L862.959 195.165C860.362 199.54 856.884 202.948 852.517 205.404L853.007 206.276L853.497 207.148C858.175 204.516 861.905 200.858 864.679 196.187L863.819 195.676ZM853.007 206.276L852.517 205.404C848.091 207.894 843.173 209.697 837.754 210.808L837.955 211.788L838.156 212.768C843.761 211.618 848.877 209.746 853.497 207.148L853.007 206.276ZM837.955 211.788L837.754 210.808C832.305 211.926 826.931 212.484 821.631 212.484V213.484V214.484C827.072 214.484 832.581 213.911 838.156 212.768L837.955 211.788ZM949.904 211.364L949.614 212.321L949.614 212.321L949.904 211.364ZM937.396 205.216L936.786 206.009L936.796 206.016L936.806 206.023L937.396 205.216ZM928.492 194.828L927.598 195.275L927.607 195.293L927.616 195.311L928.492 194.828ZM929.552 162.392L930.4 162.922L930.407 162.91L929.552 162.392ZM941 151.792L940.563 150.892L940.553 150.898L941 151.792ZM957.748 146.916L957.883 147.907L957.894 147.905L957.905 147.904L957.748 146.916ZM999.088 145.432V146.432H1000.09V145.432H999.088ZM996.756 132.712L995.835 133.102L995.838 133.108L995.841 133.115L996.756 132.712ZM989.336 124.02L988.79 124.858L988.798 124.863L988.806 124.868L989.336 124.02ZM967.076 122.112L967.319 123.082L967.335 123.078L967.351 123.074L967.076 122.112ZM959.656 125.716L960.274 126.502L960.281 126.497L959.656 125.716ZM955.416 131.864V132.864H956.137L956.365 132.18L955.416 131.864ZM928.916 131.864L927.93 131.696L927.731 132.864H928.916V131.864ZM934.852 117.024L934.046 116.433L934.042 116.437L934.852 117.024ZM946.088 106.636L945.577 105.776L945.565 105.783L946.088 106.636ZM960.928 100.7L961.158 101.673L961.171 101.67L961.182 101.667L960.928 100.7ZM1012.66 112.572L1011.87 113.191L1011.88 113.198L1012.66 112.572ZM1023.89 212V213H1024.89V212H1023.89ZM1001 212L999.997 212.044L1000.04 213H1001V212ZM1000.36 197.584L1001.36 197.54L1001.23 194.519L999.532 197.024L1000.36 197.584ZM988.7 208.184L988.253 207.29L988.253 207.29L988.7 208.184ZM975.556 212.424L975.424 211.433L975.408 211.435L975.392 211.438L975.556 212.424ZM984.884 189.316L985.32 190.216L985.32 190.216L984.884 189.316ZM995.272 180.412L994.454 179.837L994.447 179.847L994.44 179.857L995.272 180.412ZM999.3 163.664H1000.3V162.664H999.3V163.664ZM968.772 164.088L968.815 165.087L968.835 165.086L968.855 165.085L968.772 164.088ZM959.868 165.784L960.169 166.738L960.192 166.73L960.214 166.722L959.868 165.784ZM953.296 169.812L952.561 169.134L952.547 169.15L952.533 169.166L953.296 169.812ZM953.508 185.924L952.727 186.549L952.739 186.564L952.752 186.579L953.508 185.924ZM960.504 190.8L960.133 191.728L960.14 191.732L960.148 191.734L960.504 190.8ZM964.744 213.484V212.484C959.606 212.484 954.757 211.79 950.194 210.407L949.904 211.364L949.614 212.321C954.379 213.765 959.424 214.484 964.744 214.484V213.484ZM949.904 211.364L950.194 210.407C945.63 209.024 941.564 207.023 937.986 204.409L937.396 205.216L936.806 206.023C940.578 208.78 944.85 210.877 949.614 212.321L949.904 211.364ZM937.396 205.216L938.006 204.423C934.441 201.681 931.563 198.324 929.368 194.345L928.492 194.828L927.616 195.311C929.943 199.529 933.002 203.097 936.786 206.009L937.396 205.216ZM928.492 194.828L929.386 194.381C927.348 190.304 926.312 185.516 926.312 179.988H925.312H924.312C924.312 185.767 925.396 190.872 927.598 195.275L928.492 194.828ZM925.312 179.988H926.312C926.312 172.904 927.702 167.239 930.4 162.922L929.552 162.392L928.704 161.862C925.749 166.59 924.312 172.656 924.312 179.988H925.312ZM929.552 162.392L930.407 162.91C933.138 158.405 936.813 155.003 941.447 152.686L941 151.792L940.553 150.898C935.576 153.386 931.62 157.051 928.697 161.874L929.552 162.392ZM941 151.792L941.437 152.692C946.276 150.341 951.755 148.743 957.883 147.907L957.748 146.916L957.613 145.925C951.304 146.785 945.617 148.438 940.563 150.892L941 151.792ZM957.748 146.916L957.905 147.904C964.068 146.923 970.517 146.432 977.252 146.432V145.432V144.432C970.419 144.432 963.865 144.93 957.591 145.928L957.748 146.916ZM977.252 145.432V146.432H999.088V145.432V144.432H977.252V145.432ZM999.088 145.432H1000.09C1000.09 140.384 999.295 136 997.671 132.309L996.756 132.712L995.841 133.115C997.326 136.491 998.088 140.586 998.088 145.432H999.088ZM996.756 132.712L997.677 132.322C996.042 128.458 993.432 125.401 989.866 123.172L989.336 124.02L988.806 124.868C992.024 126.879 994.361 129.617 995.835 133.102L996.756 132.712ZM989.336 124.02L989.882 123.182C986.422 120.925 981.974 119.84 976.616 119.84V120.84V121.84C981.717 121.84 985.749 122.875 988.79 124.858L989.336 124.02ZM976.616 120.84V119.84C973.14 119.84 969.867 120.275 966.801 121.15L967.076 122.112L967.351 123.074C970.221 122.253 973.308 121.84 976.616 121.84V120.84ZM967.076 122.112L966.833 121.142C963.878 121.881 961.272 123.143 959.031 124.935L959.656 125.716L960.281 126.497C962.28 124.897 964.621 123.757 967.319 123.082L967.076 122.112ZM959.656 125.716L959.038 124.93C956.895 126.613 955.373 128.831 954.467 131.548L955.416 131.864L956.365 132.18C957.155 129.809 958.459 127.928 960.274 126.502L959.656 125.716ZM955.416 131.864V130.864H928.916V131.864V132.864H955.416V131.864ZM928.916 131.864L929.902 132.032C930.869 126.364 932.797 121.566 935.662 117.611L934.852 117.024L934.042 116.437C930.971 120.679 928.941 125.774 927.93 131.696L928.916 131.864ZM934.852 117.024L935.658 117.615C938.693 113.478 942.342 110.105 946.611 107.489L946.088 106.636L945.565 105.783C941.071 108.538 937.23 112.09 934.046 116.433L934.852 117.024ZM946.088 106.636L946.599 107.496C951.03 104.865 955.881 102.923 961.158 101.673L960.928 100.7L960.698 99.7269C955.233 101.021 950.191 103.037 945.577 105.776L946.088 106.636ZM960.928 100.7L961.182 101.667C966.471 100.275 971.827 99.58 977.252 99.58V98.58V97.58C971.653 97.58 966.127 98.2979 960.674 99.7329L960.928 100.7ZM977.252 98.58V99.58C993.319 99.58 1004.77 104.184 1011.87 113.191L1012.66 112.572L1013.44 111.953C1005.84 102.304 993.691 97.58 977.252 97.58V98.58ZM1012.66 112.572L1011.88 113.198C1019.18 122.289 1022.89 135.11 1022.89 151.792H1023.89H1024.89C1024.89 134.836 1021.12 121.511 1013.44 111.946L1012.66 112.572ZM1023.89 151.792H1022.89V212H1023.89H1024.89V151.792H1023.89ZM1023.89 212V211H1001V212V213H1023.89V212ZM1001 212L1002 211.956L1001.36 197.54L1000.36 197.584L999.361 197.628L999.997 212.044L1001 212ZM1000.36 197.584L999.532 197.024C996.363 201.708 992.6 205.116 988.253 207.29L988.7 208.184L989.147 209.078C993.845 206.73 997.856 203.071 1001.19 198.144L1000.36 197.584ZM988.7 208.184L988.253 207.29C983.811 209.51 979.536 210.884 975.424 211.433L975.556 212.424L975.688 213.415C980.056 212.833 984.543 211.38 989.147 209.078L988.7 208.184ZM975.556 212.424L975.392 211.438C971.184 212.139 967.639 212.484 964.744 212.484V213.484V214.484C967.785 214.484 971.448 214.122 975.72 213.41L975.556 212.424ZM969.832 192.496V193.496C975.612 193.496 980.782 192.412 985.32 190.216L984.884 189.316L984.448 188.416C980.223 190.46 975.359 191.496 969.832 191.496V192.496ZM984.884 189.316L985.32 190.216C989.851 188.023 993.455 184.94 996.104 180.967L995.272 180.412L994.44 179.857C992.001 183.516 988.679 186.369 984.448 188.416L984.884 189.316ZM995.272 180.412L996.09 180.987C998.901 176.993 1000.3 172.408 1000.3 167.268H999.3H998.3C998.3 172.022 997.014 176.199 994.454 179.837L995.272 180.412ZM999.3 167.268H1000.3V163.664H999.3H998.3V167.268H999.3ZM999.3 163.664V162.664H978.948V163.664V164.664H999.3V163.664ZM978.948 163.664V162.664C975.528 162.664 972.108 162.806 968.689 163.091L968.772 164.088L968.855 165.085C972.22 164.804 975.584 164.664 978.948 164.664V163.664ZM968.772 164.088L968.729 163.089C965.389 163.234 962.317 163.816 959.522 164.846L959.868 165.784L960.214 166.722C962.79 165.773 965.654 165.225 968.815 165.087L968.772 164.088ZM959.868 165.784L959.567 164.83C956.737 165.724 954.39 167.153 952.561 169.134L953.296 169.812L954.031 170.49C955.594 168.796 957.628 167.54 960.169 166.738L959.868 165.784ZM953.296 169.812L952.533 169.166C950.773 171.246 949.964 174.123 949.964 177.656H950.964H951.964C951.964 174.405 952.71 172.053 954.059 170.458L953.296 169.812ZM950.964 177.656H949.964C949.964 181.217 950.857 184.211 952.727 186.549L953.508 185.924L954.289 185.299C952.767 183.397 951.964 180.879 951.964 177.656H950.964ZM953.508 185.924L952.752 186.579C954.703 188.83 957.171 190.544 960.133 191.728L960.504 190.8L960.875 189.872C958.184 188.795 955.988 187.258 954.264 185.269L953.508 185.924ZM960.504 190.8L960.148 191.734C963.232 192.909 966.463 193.496 969.832 193.496V192.496V191.496C966.7 191.496 963.712 190.952 960.86 189.866L960.504 190.8ZM1060.03 206.488L1059.51 207.343L1059.53 207.35L1060.03 206.488ZM1042.01 186.348L1042.92 185.919L1042.92 185.919L1042.01 186.348ZM1042.23 126.564L1043.12 127.005L1043.13 127L1042.23 126.564ZM1060.88 106L1061.4 106.856L1061.4 106.856L1060.88 106ZM1113.67 103.032L1113.26 103.945L1113.27 103.948L1113.67 103.032ZM1129.99 116.176L1129.18 116.753L1129.18 116.765L1129.19 116.776L1129.99 116.176ZM1138.05 137.376V138.376H1139.19L1139.04 137.244L1138.05 137.376ZM1112.61 137.376L1111.66 137.677L1111.88 138.376H1112.61V137.376ZM1104.13 125.716L1103.57 126.548L1103.59 126.56L1103.61 126.571L1104.13 125.716ZM1073.18 127.2L1073.81 127.97L1073.82 127.968L1073.18 127.2ZM1064.49 173.204L1063.55 173.558L1063.55 173.566L1064.49 173.204ZM1073.6 185.5L1073 186.297L1073 186.302L1073.01 186.306L1073.6 185.5ZM1104.34 186.56L1103.86 185.683L1103.85 185.69L1104.34 186.56ZM1112.82 174.9V173.9H1112.03L1111.85 174.67L1112.82 174.9ZM1139.11 174.9L1140.1 175.014L1140.23 173.9H1139.11V174.9ZM1130.42 196.524L1129.65 195.886L1129.65 195.888L1130.42 196.524ZM1112.61 209.244L1112.24 208.313L1112.61 209.244ZM1089.29 213.484V212.484C1077.83 212.484 1068.27 210.179 1060.54 205.626L1060.03 206.488L1059.53 207.35C1067.63 212.125 1077.57 214.484 1089.29 214.484V213.484ZM1060.03 206.488L1060.55 205.633C1052.81 200.932 1046.93 194.369 1042.92 185.919L1042.01 186.348L1041.11 186.777C1045.29 195.569 1051.43 202.433 1059.51 207.343L1060.03 206.488ZM1042.01 186.348L1042.92 185.919C1038.89 177.454 1036.87 167.641 1036.87 156.456H1035.87H1034.87C1034.87 167.884 1036.94 177.999 1041.11 186.777L1042.01 186.348ZM1035.87 156.456H1036.87C1036.87 145.275 1038.96 135.467 1043.12 127.005L1042.23 126.564L1041.33 126.123C1037.01 134.904 1034.87 145.023 1034.87 156.456H1035.87ZM1042.23 126.564L1043.13 127C1047.28 118.408 1053.37 111.701 1061.4 106.856L1060.88 106L1060.36 105.144C1052 110.192 1045.65 117.194 1041.32 126.128L1042.23 126.564ZM1060.88 106L1061.4 106.856C1069.41 102.023 1079.18 99.58 1090.77 99.58V98.58V97.58C1078.9 97.58 1068.75 100.084 1060.36 105.144L1060.88 106ZM1090.77 98.58V99.58C1099.28 99.58 1106.77 101.044 1113.26 103.945L1113.67 103.032L1114.08 102.119C1107.28 99.084 1099.51 97.58 1090.77 97.58V98.58ZM1113.67 103.032L1113.27 103.948C1119.89 106.846 1125.19 111.114 1129.18 116.753L1129.99 116.176L1130.81 115.599C1126.6 109.649 1121.01 105.153 1114.07 102.116L1113.67 103.032ZM1129.99 116.176L1129.19 116.776C1133.31 122.266 1135.95 129.162 1137.06 137.508L1138.05 137.376L1139.04 137.244C1137.89 128.63 1135.16 121.392 1130.79 115.576L1129.99 116.176ZM1138.05 137.376V136.376H1112.61V137.376V138.376H1138.05V137.376ZM1112.61 137.376L1113.56 137.075C1111.81 131.525 1108.86 127.415 1104.65 124.861L1104.13 125.716L1103.61 126.571C1107.32 128.822 1110.02 132.485 1111.66 137.677L1112.61 137.376ZM1104.13 125.716L1104.68 124.884C1100.68 122.213 1095.88 120.9 1090.35 120.9V121.9V122.9C1095.56 122.9 1099.95 124.131 1103.57 126.548L1104.13 125.716ZM1090.35 121.9V120.9C1082.98 120.9 1077.01 122.708 1072.54 126.432L1073.18 127.2L1073.82 127.968C1077.83 124.625 1083.3 122.9 1090.35 122.9V121.9ZM1073.18 127.2L1072.54 126.43C1068.29 129.942 1065.22 134.407 1063.33 139.801L1064.27 140.132L1065.22 140.463C1067 135.398 1069.86 131.242 1073.81 127.97L1073.18 127.2ZM1064.27 140.132L1063.33 139.801C1061.45 145.138 1060.52 150.692 1060.52 156.456H1061.52H1062.52C1062.52 150.913 1063.42 145.584 1065.22 140.463L1064.27 140.132ZM1061.52 156.456H1060.52C1060.52 162.505 1061.53 168.209 1063.55 173.558L1064.49 173.204L1065.42 172.85C1063.49 167.741 1062.52 162.279 1062.52 156.456H1061.52ZM1064.49 173.204L1063.55 173.566C1065.59 178.816 1068.74 183.069 1073 186.297L1073.6 185.5L1074.21 184.703C1070.26 181.713 1067.33 177.768 1065.42 172.842L1064.49 173.204ZM1073.6 185.5L1073.01 186.306C1077.46 189.571 1083.13 191.164 1089.93 191.164V190.164V189.164C1083.44 189.164 1078.22 187.647 1074.19 184.694L1073.6 185.5ZM1089.93 190.164V191.164C1095.45 191.164 1100.43 189.926 1104.83 187.43L1104.34 186.56L1103.85 185.69C1099.77 187.999 1095.14 189.164 1089.93 189.164V190.164ZM1104.34 186.56L1104.82 187.437C1109.48 184.883 1112.46 180.744 1113.79 175.13L1112.82 174.9L1111.85 174.67C1110.63 179.797 1107.97 183.432 1103.86 185.683L1104.34 186.56ZM1112.82 174.9V175.9H1139.11V174.9V173.9H1112.82V174.9ZM1139.11 174.9L1138.12 174.786C1137.14 183.245 1134.31 190.262 1129.65 195.886L1130.42 196.524L1131.19 197.162C1136.13 191.197 1139.09 183.798 1140.1 175.014L1139.11 174.9ZM1130.42 196.524L1129.65 195.888C1125.1 201.402 1119.3 205.545 1112.24 208.313L1112.61 209.244L1112.97 210.175C1120.33 207.29 1126.41 202.952 1131.19 197.16L1130.42 196.524ZM1112.61 209.244L1112.24 208.313C1105.16 211.091 1097.51 212.484 1089.29 212.484V213.484V214.484C1097.74 214.484 1105.64 213.051 1112.97 210.175L1112.61 209.244ZM1150.05 212H1149.05V213H1150.05V212ZM1150.05 100.276V99.276H1149.05V100.276H1150.05ZM1173.79 100.276L1174.78 100.144L1174.67 99.276H1173.79V100.276ZM1175.49 112.996L1174.5 113.128L1174.82 115.574L1176.29 113.591L1175.49 112.996ZM1184.6 104.304L1185.12 105.158L1185.13 105.152L1184.6 104.304ZM1194.99 99.852L1194.77 98.8776L1194.76 98.8796L1194.99 99.852ZM1223.4 102.82L1222.9 103.688L1222.91 103.694L1223.4 102.82ZM1235.27 115.54L1234.38 115.987L1235.12 117.473L1236.08 116.121L1235.27 115.54ZM1244.81 106L1245.37 106.827L1245.38 106.819L1245.4 106.812L1244.81 106ZM1256.05 100.488L1256.32 101.45L1256.34 101.445L1256.35 101.44L1256.05 100.488ZM1289.33 104.092L1288.76 104.91L1288.76 104.915L1288.77 104.921L1289.33 104.092ZM1300.78 118.932L1299.84 119.285L1299.85 119.292L1300.78 118.932ZM1304.38 212V213H1305.38V212H1304.38ZM1278.52 212H1277.52V213H1278.52V212ZM1278.09 139.708L1279.09 139.617L1279.09 139.617L1278.09 139.708ZM1275.76 131.016L1274.84 131.404L1274.85 131.424L1274.86 131.444L1275.76 131.016ZM1270.67 124.444L1270.07 125.244L1270.07 125.244L1270.67 124.444ZM1250.96 124.656L1251.51 125.488L1251.52 125.481L1250.96 124.656ZM1244.6 131.652L1243.73 131.156L1243.73 131.163L1243.72 131.17L1244.6 131.652ZM1241.21 141.192L1240.23 140.996L1240.22 141.012L1240.22 141.028L1241.21 141.192ZM1240.36 212V213H1241.36V212H1240.36ZM1214.49 212H1213.49V213H1214.49V212ZM1213.86 139.92L1212.86 140.011L1212.87 140.036L1212.87 140.061L1213.86 139.92ZM1211.74 131.228L1210.8 131.558L1210.81 131.588L1210.82 131.616L1211.74 131.228ZM1206.65 124.444L1206.05 125.244L1206.06 125.253L1206.07 125.261L1206.65 124.444ZM1183.54 126.776L1182.82 126.085L1182.81 126.093L1182.8 126.102L1183.54 126.776ZM1177.39 138.648L1176.42 138.412L1176.42 138.426L1176.42 138.44L1177.39 138.648ZM1175.91 212V213H1176.91V212H1175.91ZM1150.05 212H1151.05V100.276H1150.05H1149.05V212H1150.05ZM1150.05 100.276V101.276H1173.79V100.276V99.276H1150.05V100.276ZM1173.79 100.276L1172.8 100.408L1174.5 113.128L1175.49 112.996L1176.48 112.864L1174.78 100.144L1173.79 100.276ZM1175.49 112.996L1176.29 113.591C1179.06 109.854 1182.01 107.055 1185.12 105.158L1184.6 104.304L1184.08 103.45C1180.7 105.51 1177.57 108.506 1174.68 112.401L1175.49 112.996ZM1184.6 104.304L1185.13 105.152C1188.44 103.083 1191.81 101.645 1195.22 100.824L1194.99 99.852L1194.76 98.8796C1191.11 99.7552 1187.55 101.285 1184.07 103.456L1184.6 104.304ZM1194.99 99.852L1195.22 100.826C1198.83 99.9928 1202.21 99.58 1205.38 99.58V98.58V97.58C1202.04 97.58 1198.5 98.0152 1194.77 98.8776L1194.99 99.852ZM1205.38 98.58V99.58C1212.31 99.58 1218.14 100.966 1222.9 103.688L1223.4 102.82L1223.9 101.952C1218.77 99.0203 1212.58 97.58 1205.38 97.58V98.58ZM1223.4 102.82L1222.91 103.694C1227.81 106.414 1231.63 110.498 1234.38 115.987L1235.27 115.54L1236.17 115.093C1233.26 109.275 1229.16 104.879 1223.88 101.946L1223.4 102.82ZM1235.27 115.54L1236.08 116.121C1238.85 112.247 1241.95 109.155 1245.37 106.827L1244.81 106L1244.25 105.173C1240.61 107.651 1237.34 110.918 1234.46 114.959L1235.27 115.54ZM1244.81 106L1245.4 106.812C1248.84 104.331 1252.48 102.547 1256.32 101.45L1256.05 100.488L1255.77 99.5265C1251.7 100.691 1247.85 102.581 1244.23 105.188L1244.81 106ZM1256.05 100.488L1256.35 101.44C1260.21 100.201 1264.27 99.58 1268.55 99.58V98.58V97.58C1264.08 97.58 1259.8 98.2305 1255.74 99.536L1256.05 100.488ZM1268.55 98.58V99.58C1277.04 99.58 1283.74 101.389 1288.76 104.91L1289.33 104.092L1289.91 103.274C1284.46 99.4459 1277.31 97.58 1268.55 97.58V98.58ZM1289.33 104.092L1288.77 104.921C1293.82 108.329 1297.51 113.103 1299.84 119.285L1300.78 118.932L1301.71 118.579C1299.24 112.041 1295.3 106.922 1289.89 103.263L1289.33 104.092ZM1300.78 118.932L1299.85 119.292C1302.2 125.375 1303.38 132.386 1303.38 140.344H1304.38H1305.38C1305.38 132.19 1304.17 124.926 1301.71 118.572L1300.78 118.932ZM1304.38 140.344H1303.38V212H1304.38H1305.38V140.344H1304.38ZM1304.38 212V211H1278.52V212V213H1304.38V212ZM1278.52 212H1279.52V148.612H1278.52H1277.52V212H1278.52ZM1278.52 148.612H1279.52C1279.52 145.752 1279.38 142.754 1279.09 139.617L1278.09 139.708L1277.1 139.799C1277.38 142.881 1277.52 145.818 1277.52 148.612H1278.52ZM1278.09 139.708L1279.09 139.617C1278.8 136.397 1277.99 133.385 1276.67 130.588L1275.76 131.016L1274.86 131.444C1276.08 134.018 1276.83 136.8 1277.1 139.799L1278.09 139.708ZM1275.76 131.016L1276.68 130.628C1275.49 127.784 1273.68 125.45 1271.27 123.644L1270.67 124.444L1270.07 125.244C1272.19 126.83 1273.78 128.877 1274.84 131.404L1275.76 131.016ZM1270.67 124.444L1271.27 123.644C1268.78 121.771 1265.36 120.9 1261.13 120.9V121.9V122.9C1265.11 122.9 1268.05 123.725 1270.07 125.244L1270.67 124.444ZM1261.13 121.9V120.9C1256.89 120.9 1253.28 121.853 1250.39 123.831L1250.96 124.656L1251.52 125.481C1254 123.784 1257.19 122.9 1261.13 122.9V121.9ZM1250.96 124.656L1250.4 123.824C1247.72 125.616 1245.49 128.069 1243.73 131.156L1244.6 131.652L1245.47 132.148C1247.1 129.299 1249.11 127.088 1251.51 125.488L1250.96 124.656ZM1244.6 131.652L1243.72 131.17C1242.11 134.096 1240.95 137.374 1240.23 140.996L1241.21 141.192L1242.19 141.388C1242.88 137.943 1243.98 134.861 1245.48 132.134L1244.6 131.652ZM1241.21 141.192L1240.22 141.028C1239.65 144.473 1239.36 147.92 1239.36 151.368H1240.36H1241.36C1241.36 148.032 1241.64 144.695 1242.19 141.356L1241.21 141.192ZM1240.36 151.368H1239.36V212H1240.36H1241.36V151.368H1240.36ZM1240.36 212V211H1214.49V212V213H1240.36V212ZM1214.49 212H1215.49V148.4H1214.49H1213.49V212H1214.49ZM1214.49 148.4H1215.49C1215.49 145.662 1215.28 142.788 1214.85 139.779L1213.86 139.92L1212.87 140.061C1213.29 142.988 1213.49 145.767 1213.49 148.4H1214.49ZM1213.86 139.92L1214.85 139.829C1214.56 136.625 1213.83 133.627 1212.66 130.84L1211.74 131.228L1210.82 131.616C1211.91 134.2 1212.59 136.996 1212.86 140.011L1213.86 139.92ZM1211.74 131.228L1212.68 130.898C1211.63 127.878 1209.8 125.445 1207.23 123.627L1206.65 124.444L1206.07 125.261C1208.3 126.835 1209.87 128.924 1210.8 131.558L1211.74 131.228ZM1206.65 124.444L1207.25 123.644C1204.75 121.771 1201.33 120.9 1197.11 120.9V121.9V122.9C1201.09 122.9 1204.03 123.725 1206.05 125.244L1206.65 124.444ZM1197.11 121.9V120.9C1190.99 120.9 1186.17 122.58 1182.82 126.085L1183.54 126.776L1184.27 127.467C1187.13 124.471 1191.36 122.9 1197.11 122.9V121.9ZM1183.54 126.776L1182.8 126.102C1179.71 129.488 1177.59 133.6 1176.42 138.412L1177.39 138.648L1178.37 138.884C1179.46 134.368 1181.44 130.566 1184.28 127.45L1183.54 126.776ZM1177.39 138.648L1176.42 138.44C1175.41 143.164 1174.91 147.686 1174.91 152.004H1175.91H1176.91C1176.91 147.842 1177.4 143.46 1178.37 138.856L1177.39 138.648ZM1175.91 152.004H1174.91V212H1175.91H1176.91V152.004H1175.91ZM1175.91 212V211H1150.05V212V213H1175.91V212Z" fill="#9E4E00" mask="url(#path-1-outside-1_8_731)"/>
<rect x="86.655" y="131" width="156.262" height="156.262" rx="30.5" transform="rotate(-45 86.655 131)" stroke="#9E4E00" stroke-width="29"/>
<circle cx="109.5" cy="130.351" r="95" stroke="#9E4E00" stroke-width="29"/>
</svg>
