<svg width="1316" height="262" viewBox="0 0 1316 262" fill="none" xmlns="http://www.w3.org/2000/svg">
<path d="M415.028 213.272C402.732 213.272 393.757 209.88 388.104 203.096C382.451 196.312 379.624 186.913 379.624 174.9V123.172H362.452V100.276H379.624V68.9H405.488V100.276H439.408V123.172H405.488V170.024C405.488 173.699 405.912 177.02 406.76 179.988C407.608 182.956 409.163 185.288 411.424 186.984C413.685 188.68 416.795 189.599 420.752 189.74C424.144 189.74 427.041 189.175 429.444 188.044C431.847 186.913 433.825 185.641 435.38 184.228L444.072 203.944C441.387 206.205 438.348 208.043 434.956 209.456C431.705 210.869 428.384 211.859 424.992 212.424C421.6 212.989 418.279 213.272 415.028 213.272ZM499.634 213.484C488.045 213.484 478.152 211.081 469.954 206.276C461.898 201.471 455.75 194.828 451.51 186.348C447.412 177.727 445.362 167.763 445.362 156.456C445.362 145.149 447.482 135.185 451.722 126.564C456.104 117.801 462.322 110.947 470.378 106C478.576 101.053 488.398 98.58 499.846 98.58C508.326 98.58 515.746 100.135 522.106 103.244C528.466 106.212 533.766 110.311 538.006 115.54C542.388 120.769 545.638 126.705 547.758 133.348C549.878 139.991 550.868 146.987 550.726 154.336C550.585 156.032 550.444 157.728 550.302 159.424C550.161 160.979 549.949 162.675 549.666 164.512H471.226C471.65 169.459 472.922 173.981 475.042 178.08C477.304 182.179 480.413 185.429 484.37 187.832C488.469 190.235 493.557 191.436 499.634 191.436C503.168 191.436 506.56 191.012 509.81 190.164C513.061 189.175 515.888 187.761 518.29 185.924C520.834 184.087 522.53 181.755 523.378 178.928H549.242C547.405 186.984 544.013 193.556 539.066 198.644C534.12 203.732 528.184 207.477 521.258 209.88C514.474 212.283 507.266 213.484 499.634 213.484ZM471.65 145.22H525.498C525.498 140.556 524.438 136.316 522.318 132.5C520.198 128.684 517.16 125.716 513.202 123.596C509.386 121.335 504.722 120.204 499.21 120.204C493.274 120.204 488.328 121.405 484.37 123.808C480.413 126.211 477.374 129.32 475.254 133.136C473.134 136.952 471.933 140.98 471.65 145.22ZM549.974 212L589.406 154.972L552.094 100.276H582.198L606.366 137.8L629.898 100.276H659.366L622.054 155.608L662.122 212H631.806L605.306 173.416L578.806 212H549.974ZM703.446 213.484C698.216 213.484 693.27 212.777 688.606 211.364C683.942 209.951 679.772 207.901 676.098 205.216C672.423 202.389 669.455 198.927 667.194 194.828C665.074 190.588 664.014 185.641 664.014 179.988C664.014 172.78 665.427 166.915 668.254 162.392C671.08 157.728 674.896 154.195 679.702 151.792C684.648 149.389 690.231 147.764 696.45 146.916C702.668 145.927 709.17 145.432 715.954 145.432H737.79C737.79 140.485 737.012 136.245 735.458 132.712C733.903 129.037 731.43 126.14 728.038 124.02C724.787 121.9 720.547 120.84 715.318 120.84C711.926 120.84 708.746 121.264 705.778 122.112C702.951 122.819 700.478 124.02 698.358 125.716C696.379 127.271 694.966 129.32 694.118 131.864H667.618C668.607 126.069 670.586 121.123 673.554 117.024C676.663 112.784 680.408 109.321 684.79 106.636C689.312 103.951 694.259 101.972 699.63 100.7C705 99.2867 710.442 98.58 715.954 98.58C732.207 98.58 744.008 103.244 751.358 112.572C758.848 121.9 762.594 134.973 762.594 151.792V212H739.698L739.062 197.584C735.811 202.389 731.924 205.923 727.402 208.184C722.879 210.445 718.498 211.859 714.258 212.424C710.018 213.131 706.414 213.484 703.446 213.484ZM708.534 192.496C714.187 192.496 719.204 191.436 723.586 189.316C727.967 187.196 731.43 184.228 733.974 180.412C736.659 176.596 738.002 172.215 738.002 167.268V163.664H717.65C714.258 163.664 710.866 163.805 707.474 164.088C704.223 164.229 701.255 164.795 698.57 165.784C695.884 166.632 693.694 167.975 691.998 169.812C690.443 171.649 689.666 174.264 689.666 177.656C689.666 181.048 690.514 183.804 692.21 185.924C694.047 188.044 696.379 189.669 699.206 190.8C702.174 191.931 705.283 192.496 708.534 192.496ZM821.631 213.484C816.26 213.484 810.889 212.919 805.519 211.788C800.289 210.657 795.343 208.82 790.679 206.276C786.015 203.591 782.128 199.987 779.019 195.464C775.909 190.941 773.86 185.288 772.871 178.504H798.947C800.077 181.613 801.844 184.157 804.247 186.136C806.791 187.973 809.688 189.387 812.939 190.376C816.331 191.224 819.652 191.648 822.903 191.648C824.881 191.648 827.001 191.507 829.263 191.224C831.665 190.941 833.856 190.376 835.835 189.528C837.955 188.68 839.651 187.479 840.923 185.924C842.195 184.228 842.831 182.037 842.831 179.352C842.831 176.808 842.124 174.829 840.711 173.416C839.297 171.861 837.389 170.66 834.987 169.812C832.584 168.823 829.687 168.045 826.295 167.48C820.217 166.208 813.716 164.865 806.791 163.452C799.865 161.897 793.859 159.495 788.771 156.244C786.651 154.972 784.813 153.488 783.259 151.792C781.704 150.096 780.361 148.259 779.231 146.28C778.241 144.16 777.464 141.899 776.899 139.496C776.475 137.093 776.263 134.479 776.263 131.652C776.263 125.716 777.464 120.699 779.867 116.6C782.411 112.36 785.732 108.968 789.831 106.424C794.071 103.739 798.876 101.76 804.247 100.488C809.617 99.216 815.129 98.58 820.783 98.58C828.415 98.58 835.34 99.7813 841.559 102.184C847.777 104.587 852.936 108.261 857.035 113.208C861.275 118.155 863.819 124.444 864.667 132.076H840.075C839.368 128.543 837.177 125.716 833.503 123.596C829.969 121.476 825.447 120.416 819.935 120.416C817.956 120.416 815.907 120.628 813.787 121.052C811.667 121.335 809.617 121.9 807.639 122.748C805.801 123.455 804.247 124.585 802.975 126.14C801.844 127.695 801.279 129.603 801.279 131.864C801.279 133.984 801.773 135.821 802.763 137.376C803.893 138.931 805.519 140.273 807.639 141.404C809.9 142.393 812.515 143.241 815.483 143.948C820.288 144.937 825.305 145.927 830.535 146.916C835.764 147.905 840.287 148.895 844.103 149.884C848.625 151.156 852.724 152.993 856.399 155.396C860.073 157.657 862.9 160.696 864.879 164.512C866.999 168.187 868.059 172.921 868.059 178.716C868.059 185.5 866.645 191.153 863.819 195.676C861.133 200.199 857.529 203.732 853.007 206.276C848.484 208.82 843.467 210.657 837.955 211.788C832.443 212.919 827.001 213.484 821.631 213.484ZM964.744 213.484C959.515 213.484 954.568 212.777 949.904 211.364C945.24 209.951 941.071 207.901 937.396 205.216C933.721 202.389 930.753 198.927 928.492 194.828C926.372 190.588 925.312 185.641 925.312 179.988C925.312 172.78 926.725 166.915 929.552 162.392C932.379 157.728 936.195 154.195 941 151.792C945.947 149.389 951.529 147.764 957.748 146.916C963.967 145.927 970.468 145.432 977.252 145.432H999.088C999.088 140.485 998.311 136.245 996.756 132.712C995.201 129.037 992.728 126.14 989.336 124.02C986.085 121.9 981.845 120.84 976.616 120.84C973.224 120.84 970.044 121.264 967.076 122.112C964.249 122.819 961.776 124.02 959.656 125.716C957.677 127.271 956.264 129.32 955.416 131.864H928.916C929.905 126.069 931.884 121.123 934.852 117.024C937.961 112.784 941.707 109.321 946.088 106.636C950.611 103.951 955.557 101.972 960.928 100.7C966.299 99.2867 971.74 98.58 977.252 98.58C993.505 98.58 1005.31 103.244 1012.66 112.572C1020.15 121.9 1023.89 134.973 1023.89 151.792V212H1001L1000.36 197.584C997.109 202.389 993.223 205.923 988.7 208.184C984.177 210.445 979.796 211.859 975.556 212.424C971.316 213.131 967.712 213.484 964.744 213.484ZM969.832 192.496C975.485 192.496 980.503 191.436 984.884 189.316C989.265 187.196 992.728 184.228 995.272 180.412C997.957 176.596 999.3 172.215 999.3 167.268V163.664H978.948C975.556 163.664 972.164 163.805 968.772 164.088C965.521 164.229 962.553 164.795 959.868 165.784C957.183 166.632 954.992 167.975 953.296 169.812C951.741 171.649 950.964 174.264 950.964 177.656C950.964 181.048 951.812 183.804 953.508 185.924C955.345 188.044 957.677 189.669 960.504 190.8C963.472 191.931 966.581 192.496 969.832 192.496ZM1089.29 213.484C1077.7 213.484 1067.95 211.152 1060.03 206.488C1052.12 201.683 1046.11 194.969 1042.01 186.348C1037.91 177.727 1035.87 167.763 1035.87 156.456C1035.87 145.149 1037.99 135.185 1042.23 126.564C1046.47 117.801 1052.68 110.947 1060.88 106C1069.08 101.053 1079.04 98.58 1090.77 98.58C1099.39 98.58 1107.03 100.064 1113.67 103.032C1120.45 106 1125.89 110.381 1129.99 116.176C1134.23 121.829 1136.92 128.896 1138.05 137.376H1112.61C1110.91 132.005 1108.09 128.119 1104.13 125.716C1100.31 123.172 1095.72 121.9 1090.35 121.9C1083.14 121.9 1077.42 123.667 1073.18 127.2C1069.08 130.592 1066.11 134.903 1064.27 140.132C1062.44 145.361 1061.52 150.803 1061.52 156.456C1061.52 162.392 1062.51 167.975 1064.49 173.204C1066.46 178.292 1069.5 182.391 1073.6 185.5C1077.84 188.609 1083.28 190.164 1089.93 190.164C1095.3 190.164 1100.1 188.963 1104.34 186.56C1108.72 184.157 1111.55 180.271 1112.82 174.9H1139.11C1138.12 183.521 1135.22 190.729 1130.42 196.524C1125.75 202.177 1119.82 206.417 1112.61 209.244C1105.4 212.071 1097.63 213.484 1089.29 213.484ZM1150.05 212V100.276H1173.79L1175.49 112.996C1178.31 109.18 1181.35 106.283 1184.6 104.304C1187.99 102.184 1191.46 100.7 1194.99 99.852C1198.67 99.004 1202.13 98.58 1205.38 98.58C1212.45 98.58 1218.45 99.9933 1223.4 102.82C1228.49 105.647 1232.44 109.887 1235.27 115.54C1238.1 111.583 1241.28 108.403 1244.81 106C1248.34 103.456 1252.09 101.619 1256.05 100.488C1260 99.216 1264.17 98.58 1268.55 98.58C1277.18 98.58 1284.1 100.417 1289.33 104.092C1294.56 107.625 1298.38 112.572 1300.78 118.932C1303.18 125.151 1304.38 132.288 1304.38 140.344V212H1278.52V148.612C1278.52 145.785 1278.38 142.817 1278.09 139.708C1277.81 136.599 1277.03 133.701 1275.76 131.016C1274.63 128.331 1272.94 126.14 1270.67 124.444C1268.41 122.748 1265.23 121.9 1261.13 121.9C1257.04 121.9 1253.64 122.819 1250.96 124.656C1248.41 126.352 1246.29 128.684 1244.6 131.652C1243.04 134.479 1241.91 137.659 1241.21 141.192C1240.64 144.584 1240.36 147.976 1240.36 151.368V212H1214.49V148.4C1214.49 145.715 1214.28 142.888 1213.86 139.92C1213.58 136.811 1212.87 133.913 1211.74 131.228C1210.75 128.401 1209.05 126.14 1206.65 124.444C1204.39 122.748 1201.21 121.9 1197.11 121.9C1191.17 121.9 1186.65 123.525 1183.54 126.776C1180.57 130.027 1178.53 133.984 1177.39 138.648C1176.41 143.312 1175.91 147.764 1175.91 152.004V212H1150.05Z" fill="#2A2A2A"/>
<rect x="86.655" y="131" width="156.262" height="156.262" rx="30.5" transform="rotate(-45 86.655 131)" stroke="#2A2A2A" stroke-width="29"/>
<circle cx="109.5" cy="130.351" r="95" stroke="#2A2A2A" stroke-width="29"/>
</svg>
